<svg width="129" height="20" viewBox="0 0 129 20" fill="none" xmlns="http://www.w3.org/2000/svg">
<mask id="mask0" mask-type="alpha" maskUnits="userSpaceOnUse" x="0" y="0" width="129" height="20">
<path d="M126 0H3C1.34315 0 0 1.34315 0 3V17C0 18.6569 1.34315 20 3 20H126C127.657 20 129 18.6569 129 17V3C129 1.34315 127.657 0 126 0Z" fill="white"/>
</mask>
<g mask="url(#mask0)">
<path d="M0 0H62V20H0V0Z" fill="#555555"/>
<path d="M62 0H129V20H62V0Z" fill="#F03030"/>
<path d="M84.5918 13.6304L86.8262 7.17969H87.9541L85.0537 15H84.1406L81.2456 7.17969H82.3682L84.5918 13.6304ZM89.9307 15H88.937V9.18848H89.9307V15ZM88.8564 7.64697C88.8564 7.48584 88.9048 7.34977 89.0015 7.23877C89.1017 7.12777 89.2485 7.07227 89.4419 7.07227C89.6353 7.07227 89.7821 7.12777 89.8823 7.23877C89.9826 7.34977 90.0327 7.48584 90.0327 7.64697C90.0327 7.80811 89.9826 7.94238 89.8823 8.0498C89.7821 8.15723 89.6353 8.21094 89.4419 8.21094C89.2485 8.21094 89.1017 8.15723 89.0015 8.0498C88.9048 7.94238 88.8564 7.80811 88.8564 7.64697ZM93.9375 15.1074C93.1497 15.1074 92.5088 14.8496 92.0146 14.334C91.5205 13.8148 91.2734 13.1219 91.2734 12.2554V12.0728C91.2734 11.4963 91.3826 10.9824 91.6011 10.5312C91.8231 10.0765 92.131 9.72201 92.5249 9.46777C92.9224 9.20996 93.3521 9.08105 93.814 9.08105C94.5695 9.08105 95.1567 9.32992 95.5757 9.82764C95.9946 10.3254 96.2041 11.0379 96.2041 11.9653V12.3789H92.2671C92.2814 12.9518 92.4479 13.4155 92.7666 13.77C93.0889 14.1209 93.4971 14.2964 93.9912 14.2964C94.3421 14.2964 94.6393 14.2248 94.8828 14.0815C95.1263 13.9383 95.3394 13.7485 95.522 13.5122L96.1289 13.9849C95.6419 14.7332 94.9115 15.1074 93.9375 15.1074ZM93.814 9.89746C93.4129 9.89746 93.0763 10.0443 92.8042 10.3379C92.5321 10.6279 92.3638 11.0361 92.2993 11.5625H95.2104V11.4873C95.1818 10.9824 95.0457 10.5921 94.8022 10.3164C94.5588 10.0371 94.2293 9.89746 93.814 9.89746ZM98.707 7.78125V9.18848H99.792V9.95654H98.707V13.5605C98.707 13.7933 98.7554 13.9688 98.8521 14.0869C98.9487 14.2015 99.1134 14.2588 99.3462 14.2588C99.4608 14.2588 99.6183 14.2373 99.8188 14.1943V15C99.5575 15.0716 99.3032 15.1074 99.0562 15.1074C98.6121 15.1074 98.2773 14.9731 98.0518 14.7046C97.8262 14.436 97.7134 14.0547 97.7134 13.5605V9.95654H96.6553V9.18848H97.7134V7.78125H98.707ZM101.898 9.18848L101.93 9.91895C102.374 9.36035 102.954 9.08105 103.67 9.08105C104.898 9.08105 105.518 9.77393 105.528 11.1597V15H104.535V11.1543C104.531 10.7354 104.434 10.4256 104.245 10.2251C104.058 10.0246 103.767 9.92432 103.369 9.92432C103.047 9.92432 102.764 10.0103 102.521 10.1821C102.277 10.354 102.087 10.5796 101.951 10.8589V15H100.958V9.18848H101.898ZM110.615 15C110.557 14.8854 110.511 14.6813 110.475 14.3877C110.013 14.8675 109.462 15.1074 108.821 15.1074C108.248 15.1074 107.777 14.9463 107.408 14.624C107.043 14.2982 106.86 13.8864 106.86 13.3887C106.86 12.7835 107.09 12.3145 107.548 11.9814C108.01 11.6449 108.658 11.4766 109.492 11.4766H110.459V11.02C110.459 10.6727 110.355 10.397 110.147 10.1929C109.94 9.98519 109.634 9.88135 109.229 9.88135C108.875 9.88135 108.577 9.97087 108.337 10.1499C108.097 10.3289 107.978 10.5456 107.978 10.7998H106.979C106.979 10.5098 107.081 10.2305 107.285 9.96191C107.492 9.68978 107.772 9.47493 108.123 9.31738C108.477 9.15983 108.866 9.08105 109.288 9.08105C109.958 9.08105 110.482 9.24935 110.862 9.58594C111.241 9.91895 111.438 10.3791 111.453 10.9663V13.6411C111.453 14.1746 111.521 14.599 111.657 14.9141V15H110.615ZM108.966 14.2427C109.277 14.2427 109.573 14.1621 109.852 14.001C110.131 13.8398 110.334 13.6304 110.459 13.3726V12.1802H109.68C108.463 12.1802 107.854 12.5365 107.854 13.249C107.854 13.5605 107.958 13.804 108.166 13.9795C108.373 14.1549 108.64 14.2427 108.966 14.2427ZM113.945 9.18848L113.972 9.83301C114.398 9.33171 114.972 9.08105 115.696 9.08105C116.509 9.08105 117.062 9.39258 117.355 10.0156C117.549 9.73633 117.799 9.51074 118.107 9.33887C118.419 9.16699 118.786 9.08105 119.208 9.08105C120.483 9.08105 121.131 9.75602 121.153 11.106V15H120.159V11.165C120.159 10.7497 120.064 10.4399 119.875 10.2358C119.685 10.0282 119.366 9.92432 118.918 9.92432C118.55 9.92432 118.243 10.0353 118 10.2573C117.757 10.4757 117.615 10.7712 117.576 11.1436V15H116.577V11.1919C116.577 10.3468 116.163 9.92432 115.336 9.92432C114.684 9.92432 114.238 10.2018 113.999 10.7568V15H113.005V9.18848H113.945Z" fill="#010101" fill-opacity="0.3"/>
<path d="M83.9736 12.2974L85.9609 6.17969H87.4541L84.6396 14H83.3237L80.52 6.17969H82.0078L83.9736 12.2974ZM89.6025 14H88.2974V8.18848H89.6025V14ZM88.2168 6.6792C88.2168 6.47868 88.2795 6.31217 88.4048 6.17969C88.5337 6.0472 88.7163 5.98096 88.9526 5.98096C89.189 5.98096 89.3716 6.0472 89.5005 6.17969C89.6294 6.31217 89.6938 6.47868 89.6938 6.6792C89.6938 6.87614 89.6294 7.04085 89.5005 7.17334C89.3716 7.30225 89.189 7.3667 88.9526 7.3667C88.7163 7.3667 88.5337 7.30225 88.4048 7.17334C88.2795 7.04085 88.2168 6.87614 88.2168 6.6792ZM93.5879 14.1074C92.7607 14.1074 92.0894 13.8478 91.5737 13.3286C91.0617 12.8058 90.8057 12.1112 90.8057 11.2446V11.0835C90.8057 10.5034 90.9167 9.986 91.1387 9.53125C91.3643 9.07292 91.6794 8.71663 92.084 8.4624C92.4886 8.20817 92.9398 8.08105 93.4375 8.08105C94.2288 8.08105 94.8394 8.3335 95.269 8.83838C95.7023 9.34326 95.9189 10.0576 95.9189 10.9814V11.5078H92.1216C92.161 11.9876 92.3203 12.3672 92.5996 12.6465C92.8825 12.9258 93.237 13.0654 93.6631 13.0654C94.2611 13.0654 94.748 12.8237 95.124 12.3403L95.8276 13.0117C95.5949 13.359 95.2834 13.6294 94.8931 13.8228C94.5063 14.0125 94.0713 14.1074 93.5879 14.1074ZM93.4321 9.12842C93.0741 9.12842 92.784 9.25374 92.562 9.50439C92.3436 9.75505 92.2039 10.1042 92.1431 10.5518H94.6299V10.4551C94.6012 10.0182 94.4849 9.6888 94.2808 9.4668C94.0767 9.24121 93.7938 9.12842 93.4321 9.12842ZM98.5723 6.77588V8.18848H99.5981V9.15527H98.5723V12.3994C98.5723 12.6214 98.6152 12.7826 98.7012 12.8828C98.7907 12.9795 98.9482 13.0278 99.1738 13.0278C99.3242 13.0278 99.4764 13.0099 99.6304 12.9741V13.9839C99.3332 14.0662 99.0467 14.1074 98.771 14.1074C97.7684 14.1074 97.2671 13.5542 97.2671 12.4478V9.15527H96.311V8.18848H97.2671V6.77588H98.5723ZM101.811 8.18848L101.849 8.85986C102.278 8.34066 102.842 8.08105 103.541 8.08105C104.751 8.08105 105.367 8.77393 105.388 10.1597V14H104.083V10.2349C104.083 9.86605 104.002 9.59391 103.841 9.41846C103.684 9.23942 103.424 9.1499 103.062 9.1499C102.536 9.1499 102.144 9.38802 101.886 9.86426V14H100.581V8.18848H101.811ZM110.195 14C110.138 13.889 110.088 13.7082 110.045 13.4575C109.63 13.8908 109.121 14.1074 108.52 14.1074C107.936 14.1074 107.46 13.9409 107.091 13.6079C106.722 13.2749 106.538 12.8631 106.538 12.3726C106.538 11.7531 106.767 11.2786 107.225 10.9492C107.687 10.6162 108.346 10.4497 109.202 10.4497H110.002V10.0684C110.002 9.76758 109.918 9.52767 109.75 9.34863C109.581 9.16602 109.325 9.07471 108.981 9.07471C108.684 9.07471 108.441 9.1499 108.251 9.30029C108.061 9.4471 107.966 9.63509 107.966 9.86426H106.661C106.661 9.54557 106.767 9.24837 106.978 8.97266C107.189 8.69336 107.476 8.47493 107.837 8.31738C108.203 8.15983 108.609 8.08105 109.057 8.08105C109.737 8.08105 110.279 8.25293 110.684 8.59668C111.089 8.93685 111.296 9.41667 111.307 10.0361V12.6572C111.307 13.18 111.381 13.5972 111.527 13.9087V14H110.195ZM108.761 13.0601C109.019 13.0601 109.261 12.9974 109.486 12.8721C109.715 12.7467 109.887 12.5785 110.002 12.3672V11.2715H109.298C108.815 11.2715 108.451 11.3556 108.208 11.5239C107.965 11.6922 107.843 11.9303 107.843 12.2383C107.843 12.4889 107.925 12.6895 108.09 12.8398C108.258 12.9867 108.482 13.0601 108.761 13.0601ZM113.901 8.18848L113.939 8.79541C114.347 8.31917 114.906 8.08105 115.615 8.08105C116.392 8.08105 116.924 8.37826 117.21 8.97266C117.632 8.37826 118.227 8.08105 118.993 8.08105C119.634 8.08105 120.11 8.2583 120.422 8.61279C120.737 8.96729 120.898 9.49007 120.905 10.1812V14H119.6V10.2188C119.6 9.84993 119.52 9.57959 119.358 9.40771C119.197 9.23584 118.931 9.1499 118.558 9.1499C118.261 9.1499 118.017 9.23047 117.828 9.3916C117.641 9.54915 117.511 9.75684 117.436 10.0146L117.441 14H116.136V10.1758C116.118 9.49186 115.769 9.1499 115.088 9.1499C114.566 9.1499 114.195 9.36296 113.977 9.78906V14H112.671V8.18848H113.901Z" fill="white"/>
<path d="M76.1066 9.81703L73.5953 9.45204L72.4726 7.17607C72.4419 7.11375 72.3915 7.06331 72.3292 7.03264C72.1729 6.95549 71.983 7.01979 71.9048 7.17607L70.7822 9.45204L68.2708 9.81703C68.2016 9.82692 68.1383 9.85956 68.0898 9.90902C68.0312 9.96924 67.9989 10.0503 68 10.1343C68.0011 10.2183 68.0356 10.2984 68.0957 10.3571L69.9128 12.1286L69.4835 14.6301C69.4734 14.6883 69.4798 14.7481 69.5021 14.8029C69.5243 14.8576 69.5614 14.905 69.6092 14.9397C69.6569 14.9744 69.7135 14.995 69.7724 14.9992C69.8313 15.0034 69.8902 14.991 69.9424 14.9634L72.1887 13.7824L74.435 14.9634C74.4964 14.9961 74.5676 15.007 74.6358 14.9951C74.8079 14.9654 74.9237 14.8022 74.894 14.6301L74.4647 12.1286L76.2817 10.3571C76.3312 10.3086 76.3638 10.2453 76.3737 10.1761C76.4004 10.003 76.2797 9.84275 76.1066 9.81703Z" fill="#010101" fill-opacity="0.3"/>
<path d="M76.1066 8.81703L73.5953 8.45204L72.4726 6.17607C72.4419 6.11375 72.3915 6.06331 72.3292 6.03264C72.1729 5.95549 71.983 6.01979 71.9048 6.17607L70.7822 8.45204L68.2708 8.81703C68.2016 8.82692 68.1383 8.85956 68.0898 8.90902C68.0312 8.96924 67.9989 9.05026 68 9.13428C68.0011 9.2183 68.0356 9.29844 68.0957 9.35709L69.9128 11.1286L69.4835 13.6301C69.4734 13.6883 69.4798 13.7481 69.5021 13.8029C69.5243 13.8576 69.5614 13.905 69.6092 13.9397C69.6569 13.9744 69.7135 13.995 69.7724 13.9992C69.8313 14.0034 69.8902 13.991 69.9424 13.9634L72.1887 12.7824L74.435 13.9634C74.4964 13.9961 74.5676 14.007 74.6358 13.9951C74.8079 13.9654 74.9237 13.8022 74.894 13.6301L74.4647 11.1286L76.2817 9.35709C76.3312 9.30862 76.3638 9.24532 76.3737 9.17608C76.4004 9.00298 76.2797 8.84275 76.1066 8.81703Z" fill="#FFD500"/>
<path d="M0 0H129V20H0V0Z" fill="url(#paint0_linear)"/>
<path d="M12.293 11.8945C12.293 12.8789 12.0723 13.6621 11.6309 14.2441C11.1934 14.8262 10.5898 15.1172 9.82031 15.1172C9.07812 15.1172 8.5 14.8496 8.08594 14.3145L8.01562 15H6.72656V6H8.15039V9.26953C8.56055 8.78516 9.11328 8.54297 9.80859 8.54297C10.582 8.54297 11.1895 8.83008 11.6309 9.4043C12.0723 9.97852 12.293 10.7812 12.293 11.8125V11.8945ZM10.8691 11.7715C10.8691 11.084 10.748 10.5684 10.5059 10.2246C10.2637 9.88086 9.91211 9.70898 9.45117 9.70898C8.83398 9.70898 8.40039 9.97852 8.15039 10.5176V13.1309C8.4043 13.6816 8.8418 13.957 9.46289 13.957C9.9082 13.957 10.252 13.791 10.4941 13.459C10.7363 13.127 10.8613 12.625 10.8691 11.9531V11.7715ZM16.8105 9.96094C16.623 9.92969 16.4297 9.91406 16.2305 9.91406C15.5781 9.91406 15.1387 10.1641 14.9121 10.6641V15H13.4883V8.66016H14.8477L14.8828 9.36914C15.2266 8.81836 15.7031 8.54297 16.3125 8.54297C16.5156 8.54297 16.6836 8.57031 16.8164 8.625L16.8105 9.96094ZM20.3848 15.1172C19.4824 15.1172 18.75 14.834 18.1875 14.2676C17.6289 13.6973 17.3496 12.9395 17.3496 11.9941V11.8184C17.3496 11.1855 17.4707 10.6211 17.7129 10.125C17.959 9.625 18.3027 9.23633 18.7441 8.95898C19.1855 8.68164 19.6777 8.54297 20.2207 8.54297C21.084 8.54297 21.75 8.81836 22.2188 9.36914C22.6914 9.91992 22.9277 10.6992 22.9277 11.707V12.2812H18.7852C18.8281 12.8047 19.002 13.2188 19.3066 13.5234C19.6152 13.8281 20.002 13.9805 20.4668 13.9805C21.1191 13.9805 21.6504 13.7168 22.0605 13.1895L22.8281 13.9219C22.5742 14.3008 22.2344 14.5957 21.8086 14.8066C21.3867 15.0137 20.9121 15.1172 20.3848 15.1172ZM20.2148 9.68555C19.8242 9.68555 19.5078 9.82227 19.2656 10.0957C19.0273 10.3691 18.875 10.75 18.8086 11.2383H21.5215V11.1328C21.4902 10.6562 21.3633 10.2969 21.1406 10.0547C20.918 9.80859 20.6094 9.68555 20.2148 9.68555ZM29.6074 13.0371L30.6152 8.66016H32.0039L30.2754 15H29.1035L27.7441 10.6465L26.4082 15H25.2363L23.502 8.66016H24.8906L25.916 12.9902L27.2168 8.66016H28.2891L29.6074 13.0371ZM35.748 15.1172C34.8457 15.1172 34.1133 14.834 33.5508 14.2676C32.9922 13.6973 32.7129 12.9395 32.7129 11.9941V11.8184C32.7129 11.1855 32.834 10.6211 33.0762 10.125C33.3223 9.625 33.666 9.23633 34.1074 8.95898C34.5488 8.68164 35.041 8.54297 35.584 8.54297C36.4473 8.54297 37.1133 8.81836 37.582 9.36914C38.0547 9.91992 38.291 10.6992 38.291 11.707V12.2812H34.1484C34.1914 12.8047 34.3652 13.2188 34.6699 13.5234C34.9785 13.8281 35.3652 13.9805 35.8301 13.9805C36.4824 13.9805 37.0137 13.7168 37.4238 13.1895L38.1914 13.9219C37.9375 14.3008 37.5977 14.5957 37.1719 14.8066C36.75 15.0137 36.2754 15.1172 35.748 15.1172ZM35.5781 9.68555C35.1875 9.68555 34.8711 9.82227 34.6289 10.0957C34.3906 10.3691 34.2383 10.75 34.1719 11.2383H36.8848V11.1328C36.8535 10.6562 36.7266 10.2969 36.5039 10.0547C36.2812 9.80859 35.9727 9.68555 35.5781 9.68555ZM39.1348 11.7832C39.1348 10.8066 39.3613 10.0234 39.8145 9.43359C40.2676 8.83984 40.875 8.54297 41.6367 8.54297C42.3086 8.54297 42.8516 8.77734 43.2656 9.24609V6H44.6895V15H43.4004L43.3301 14.3438C42.9043 14.8594 42.3359 15.1172 41.625 15.1172C40.8828 15.1172 40.2812 14.8184 39.8203 14.2207C39.3633 13.623 39.1348 12.8105 39.1348 11.7832ZM40.5586 11.9062C40.5586 12.5508 40.6816 13.0547 40.9277 13.418C41.1777 13.7773 41.5312 13.957 41.9883 13.957C42.5703 13.957 42.9961 13.6973 43.2656 13.1777V10.4707C43.0039 9.96289 42.582 9.70898 42 9.70898C41.5391 9.70898 41.1836 9.89258 40.9336 10.2598C40.6836 10.623 40.5586 11.1719 40.5586 11.9062ZM50.6777 15H49.2539V8.66016H50.6777V15ZM49.166 7.01367C49.166 6.79492 49.2344 6.61328 49.3711 6.46875C49.5117 6.32422 49.7109 6.25195 49.9688 6.25195C50.2266 6.25195 50.4258 6.32422 50.5664 6.46875C50.707 6.61328 50.7773 6.79492 50.7773 7.01367C50.7773 7.22852 50.707 7.4082 50.5664 7.55273C50.4258 7.69336 50.2266 7.76367 49.9688 7.76367C49.7109 7.76367 49.5117 7.69336 49.3711 7.55273C49.2344 7.4082 49.166 7.22852 49.166 7.01367ZM53.5547 8.66016L53.5957 9.39258C54.0645 8.82617 54.6797 8.54297 55.4414 8.54297C56.7617 8.54297 57.4336 9.29883 57.457 10.8105V15H56.0332V10.8926C56.0332 10.4902 55.9453 10.1934 55.7695 10.002C55.5977 9.80664 55.3145 9.70898 54.9199 9.70898C54.3457 9.70898 53.918 9.96875 53.6367 10.4883V15H52.2129V8.66016H53.5547Z" fill="#010101" fill-opacity="0.3"/>
<path d="M11.293 10.8945C11.293 11.8789 11.0723 12.6621 10.6309 13.2441C10.1934 13.8262 9.58984 14.1172 8.82031 14.1172C8.07812 14.1172 7.5 13.8496 7.08594 13.3145L7.01562 14H5.72656V5H7.15039V8.26953C7.56055 7.78516 8.11328 7.54297 8.80859 7.54297C9.58203 7.54297 10.1895 7.83008 10.6309 8.4043C11.0723 8.97852 11.293 9.78125 11.293 10.8125V10.8945ZM9.86914 10.7715C9.86914 10.084 9.74805 9.56836 9.50586 9.22461C9.26367 8.88086 8.91211 8.70898 8.45117 8.70898C7.83398 8.70898 7.40039 8.97852 7.15039 9.51758V12.1309C7.4043 12.6816 7.8418 12.957 8.46289 12.957C8.9082 12.957 9.25195 12.791 9.49414 12.459C9.73633 12.127 9.86133 11.625 9.86914 10.9531V10.7715ZM15.8105 8.96094C15.623 8.92969 15.4297 8.91406 15.2305 8.91406C14.5781 8.91406 14.1387 9.16406 13.9121 9.66406V14H12.4883V7.66016H13.8477L13.8828 8.36914C14.2266 7.81836 14.7031 7.54297 15.3125 7.54297C15.5156 7.54297 15.6836 7.57031 15.8164 7.625L15.8105 8.96094ZM19.3848 14.1172C18.4824 14.1172 17.75 13.834 17.1875 13.2676C16.6289 12.6973 16.3496 11.9395 16.3496 10.9941V10.8184C16.3496 10.1855 16.4707 9.62109 16.7129 9.125C16.959 8.625 17.3027 8.23633 17.7441 7.95898C18.1855 7.68164 18.6777 7.54297 19.2207 7.54297C20.084 7.54297 20.75 7.81836 21.2188 8.36914C21.6914 8.91992 21.9277 9.69922 21.9277 10.707V11.2812H17.7852C17.8281 11.8047 18.002 12.2188 18.3066 12.5234C18.6152 12.8281 19.002 12.9805 19.4668 12.9805C20.1191 12.9805 20.6504 12.7168 21.0605 12.1895L21.8281 12.9219C21.5742 13.3008 21.2344 13.5957 20.8086 13.8066C20.3867 14.0137 19.9121 14.1172 19.3848 14.1172ZM19.2148 8.68555C18.8242 8.68555 18.5078 8.82227 18.2656 9.0957C18.0273 9.36914 17.875 9.75 17.8086 10.2383H20.5215V10.1328C20.4902 9.65625 20.3633 9.29688 20.1406 9.05469C19.918 8.80859 19.6094 8.68555 19.2148 8.68555ZM28.6074 12.0371L29.6152 7.66016H31.0039L29.2754 14H28.1035L26.7441 9.64648L25.4082 14H24.2363L22.502 7.66016H23.8906L24.916 11.9902L26.2168 7.66016H27.2891L28.6074 12.0371ZM34.748 14.1172C33.8457 14.1172 33.1133 13.834 32.5508 13.2676C31.9922 12.6973 31.7129 11.9395 31.7129 10.9941V10.8184C31.7129 10.1855 31.834 9.62109 32.0762 9.125C32.3223 8.625 32.666 8.23633 33.1074 7.95898C33.5488 7.68164 34.041 7.54297 34.584 7.54297C35.4473 7.54297 36.1133 7.81836 36.582 8.36914C37.0547 8.91992 37.291 9.69922 37.291 10.707V11.2812H33.1484C33.1914 11.8047 33.3652 12.2188 33.6699 12.5234C33.9785 12.8281 34.3652 12.9805 34.8301 12.9805C35.4824 12.9805 36.0137 12.7168 36.4238 12.1895L37.1914 12.9219C36.9375 13.3008 36.5977 13.5957 36.1719 13.8066C35.75 14.0137 35.2754 14.1172 34.748 14.1172ZM34.5781 8.68555C34.1875 8.68555 33.8711 8.82227 33.6289 9.0957C33.3906 9.36914 33.2383 9.75 33.1719 10.2383H35.8848V10.1328C35.8535 9.65625 35.7266 9.29688 35.5039 9.05469C35.2812 8.80859 34.9727 8.68555 34.5781 8.68555ZM38.1348 10.7832C38.1348 9.80664 38.3613 9.02344 38.8145 8.43359C39.2676 7.83984 39.875 7.54297 40.6367 7.54297C41.3086 7.54297 41.8516 7.77734 42.2656 8.24609V5H43.6895V14H42.4004L42.3301 13.3438C41.9043 13.8594 41.3359 14.1172 40.625 14.1172C39.8828 14.1172 39.2812 13.8184 38.8203 13.2207C38.3633 12.623 38.1348 11.8105 38.1348 10.7832ZM39.5586 10.9062C39.5586 11.5508 39.6816 12.0547 39.9277 12.418C40.1777 12.7773 40.5312 12.957 40.9883 12.957C41.5703 12.957 41.9961 12.6973 42.2656 12.1777V9.4707C42.0039 8.96289 41.582 8.70898 41 8.70898C40.5391 8.70898 40.1836 8.89258 39.9336 9.25977C39.6836 9.62305 39.5586 10.1719 39.5586 10.9062ZM49.6777 14H48.2539V7.66016H49.6777V14ZM48.166 6.01367C48.166 5.79492 48.2344 5.61328 48.3711 5.46875C48.5117 5.32422 48.7109 5.25195 48.9688 5.25195C49.2266 5.25195 49.4258 5.32422 49.5664 5.46875C49.707 5.61328 49.7773 5.79492 49.7773 6.01367C49.7773 6.22852 49.707 6.4082 49.5664 6.55273C49.4258 6.69336 49.2266 6.76367 48.9688 6.76367C48.7109 6.76367 48.5117 6.69336 48.3711 6.55273C48.2344 6.4082 48.166 6.22852 48.166 6.01367ZM52.5547 7.66016L52.5957 8.39258C53.0645 7.82617 53.6797 7.54297 54.4414 7.54297C55.7617 7.54297 56.4336 8.29883 56.457 9.81055V14H55.0332V9.89258C55.0332 9.49023 54.9453 9.19336 54.7695 9.00195C54.5977 8.80664 54.3145 8.70898 53.9199 8.70898C53.3457 8.70898 52.918 8.96875 52.6367 9.48828V14H51.2129V7.66016H52.5547Z" fill="white"/>
</g>
<defs>
<linearGradient id="paint0_linear" x1="50" y1="6.03141e-08" x2="50" y2="20" gradientUnits="userSpaceOnUse">
<stop stop-color="#BBBBBB" stop-opacity="0.1"/>
<stop offset="1" stop-opacity="0.1"/>
</linearGradient>
</defs>
</svg>
