<svg width="110" height="20" viewBox="0 0 110 20" fill="none" xmlns="http://www.w3.org/2000/svg">
<mask id="mask0" mask-type="alpha" maskUnits="userSpaceOnUse" x="0" y="0" width="110" height="20">
<path d="M107.442 0H2.55814C1.14532 0 0 1.34315 0 3V17C0 18.6569 1.14532 20 2.55814 20H107.442C108.855 20 110 18.6569 110 17V3C110 1.34315 108.855 0 107.442 0Z" fill="white"/>
</mask>
<g mask="url(#mask0)">
<path d="M0 0H24.0698V20H0V0Z" fill="#555555"/>
<path d="M24 0H110V20H24V0Z" fill="#F03030"/>
<path d="M44.687 13.1426L46.855 6.46875H48.4839L45.4136 15H43.978L40.9194 6.46875H42.5425L44.687 13.1426ZM50.8276 15H49.4038V8.66016H50.8276V15ZM49.3159 7.01367C49.3159 6.79492 49.3843 6.61328 49.521 6.46875C49.6616 6.32422 49.8608 6.25195 50.1186 6.25195C50.3764 6.25195 50.5757 6.32422 50.7163 6.46875C50.8569 6.61328 50.9272 6.79492 50.9272 7.01367C50.9272 7.22852 50.8569 7.4082 50.7163 7.55273C50.5757 7.69336 50.3764 7.76367 50.1186 7.76367C49.8608 7.76367 49.6616 7.69336 49.521 7.55273C49.3843 7.4082 49.3159 7.22852 49.3159 7.01367ZM55.1753 15.1172C54.2729 15.1172 53.5405 14.834 52.978 14.2676C52.4194 13.6973 52.1401 12.9395 52.1401 11.9941V11.8184C52.1401 11.1855 52.2612 10.6211 52.5034 10.125C52.7495 9.625 53.0932 9.23633 53.5347 8.95898C53.9761 8.68164 54.4682 8.54297 55.0112 8.54297C55.8745 8.54297 56.5405 8.81836 57.0093 9.36914C57.4819 9.91992 57.7182 10.6992 57.7182 11.707V12.2812H53.5757C53.6186 12.8047 53.7925 13.2188 54.0972 13.5234C54.4057 13.8281 54.7925 13.9805 55.2573 13.9805C55.9097 13.9805 56.4409 13.7168 56.8511 13.1895L57.6186 13.9219C57.3647 14.3008 57.0249 14.5957 56.5991 14.8066C56.1772 15.0137 55.7026 15.1172 55.1753 15.1172ZM55.0054 9.68555C54.6147 9.68555 54.2983 9.82227 54.0561 10.0957C53.8179 10.3691 53.6655 10.75 53.5991 11.2383H56.312V11.1328C56.2807 10.6562 56.1538 10.2969 55.9311 10.0547C55.7085 9.80859 55.3999 9.68555 55.0054 9.68555ZM60.6128 7.11914V8.66016H61.7319V9.71484H60.6128V13.2539C60.6128 13.4961 60.6597 13.6719 60.7534 13.7812C60.8511 13.8867 61.0229 13.9395 61.269 13.9395C61.4331 13.9395 61.5991 13.9199 61.7671 13.8809V14.9824C61.4429 15.0723 61.1304 15.1172 60.8296 15.1172C59.7358 15.1172 59.1889 14.5137 59.1889 13.3066V9.71484H58.146V8.66016H59.1889V7.11914H60.6128ZM64.146 8.66016L64.187 9.39258C64.6557 8.82617 65.271 8.54297 66.0327 8.54297C67.353 8.54297 68.0249 9.29883 68.0483 10.8105V15H66.6245V10.8926C66.6245 10.4902 66.5366 10.1934 66.3608 10.002C66.1889 9.80664 65.9057 9.70898 65.5112 9.70898C64.937 9.70898 64.5093 9.96875 64.228 10.4883V15H62.8042V8.66016H64.146ZM73.2925 15C73.23 14.8789 73.1753 14.6816 73.1284 14.4082C72.6753 14.8809 72.1206 15.1172 71.4643 15.1172C70.8276 15.1172 70.3081 14.9355 69.9057 14.5723C69.5034 14.209 69.3022 13.7598 69.3022 13.2246C69.3022 12.5488 69.5522 12.0312 70.0522 11.6719C70.5561 11.3086 71.2749 11.127 72.2085 11.127H73.0815V10.7109C73.0815 10.3828 72.9897 10.1211 72.8061 9.92578C72.6225 9.72656 72.3432 9.62695 71.9682 9.62695C71.644 9.62695 71.3784 9.70898 71.1714 9.87305C70.9643 10.0332 70.8608 10.2383 70.8608 10.4883H69.437C69.437 10.1406 69.5522 9.81641 69.7827 9.51562C70.0132 9.21094 70.3257 8.97266 70.7202 8.80078C71.1186 8.62891 71.562 8.54297 72.0503 8.54297C72.7925 8.54297 73.3843 8.73047 73.8257 9.10547C74.2671 9.47656 74.4936 10 74.5054 10.6758V13.5352C74.5054 14.1055 74.5854 14.5605 74.7456 14.9004V15H73.2925ZM71.728 13.9746C72.0093 13.9746 72.2729 13.9062 72.519 13.7695C72.769 13.6328 72.9565 13.4492 73.0815 13.2188V12.0234H72.3139C71.7866 12.0234 71.3901 12.1152 71.1245 12.2988C70.8589 12.4824 70.7261 12.7422 70.7261 13.0781C70.7261 13.3516 70.8159 13.5703 70.9956 13.7344C71.1792 13.8945 71.4233 13.9746 71.728 13.9746ZM77.3354 8.66016L77.3764 9.32227C77.8218 8.80273 78.4311 8.54297 79.2046 8.54297C80.0522 8.54297 80.6323 8.86719 80.9448 9.51562C81.4057 8.86719 82.0542 8.54297 82.8901 8.54297C83.5893 8.54297 84.1089 8.73633 84.4487 9.12305C84.7925 9.50977 84.9682 10.0801 84.9761 10.834V15H83.5522V10.875C83.5522 10.4727 83.4643 10.1777 83.2886 9.99023C83.1128 9.80273 82.8218 9.70898 82.4155 9.70898C82.0913 9.70898 81.8257 9.79688 81.6186 9.97266C81.4155 10.1445 81.2729 10.3711 81.1909 10.6523L81.1968 15H79.7729V10.8281C79.7534 10.082 79.3725 9.70898 78.6304 9.70898C78.06 9.70898 77.6557 9.94141 77.4175 10.4062V15H75.9936V8.66016H77.3354ZM89.23 15.1172C88.3276 15.1172 87.5952 14.834 87.0327 14.2676C86.4741 13.6973 86.1948 12.9395 86.1948 11.9941V11.8184C86.1948 11.1855 86.3159 10.6211 86.5581 10.125C86.8042 9.625 87.1479 9.23633 87.5893 8.95898C88.0307 8.68164 88.5229 8.54297 89.0659 8.54297C89.9292 8.54297 90.5952 8.81836 91.0639 9.36914C91.5366 9.91992 91.7729 10.6992 91.7729 11.707V12.2812H87.6304C87.6733 12.8047 87.8472 13.2188 88.1518 13.5234C88.4604 13.8281 88.8472 13.9805 89.312 13.9805C89.9643 13.9805 90.4956 13.7168 90.9057 13.1895L91.6733 13.9219C91.4194 14.3008 91.0796 14.5957 90.6538 14.8066C90.2319 15.0137 89.7573 15.1172 89.23 15.1172ZM89.06 9.68555C88.6694 9.68555 88.353 9.82227 88.1108 10.0957C87.8725 10.3691 87.7202 10.75 87.6538 11.2383H90.3667V11.1328C90.3354 10.6562 90.2085 10.2969 89.9858 10.0547C89.7632 9.80859 89.4546 9.68555 89.06 9.68555ZM96.437 13.2773C96.437 13.0234 96.3315 12.8301 96.1206 12.6973C95.9136 12.5645 95.5679 12.4473 95.0835 12.3457C94.5991 12.2441 94.1948 12.1152 93.8706 11.959C93.1597 11.6152 92.8042 11.1172 92.8042 10.4648C92.8042 9.91797 93.0347 9.46094 93.4956 9.09375C93.9565 8.72656 94.5425 8.54297 95.2534 8.54297C96.0112 8.54297 96.6225 8.73047 97.0874 9.10547C97.5561 9.48047 97.7905 9.9668 97.7905 10.5645H96.3667C96.3667 10.291 96.2651 10.0645 96.062 9.88477C95.8589 9.70117 95.5893 9.60938 95.2534 9.60938C94.9409 9.60938 94.685 9.68164 94.4858 9.82617C94.2905 9.9707 94.1929 10.1641 94.1929 10.4062C94.1929 10.625 94.2847 10.7949 94.4682 10.916C94.6518 11.0371 95.0229 11.1602 95.5815 11.2852C96.1401 11.4062 96.5776 11.5527 96.894 11.7246C97.2143 11.8926 97.4507 12.0957 97.603 12.334C97.7593 12.5723 97.8374 12.8613 97.8374 13.2012C97.8374 13.7715 97.6011 14.2344 97.1284 14.5898C96.6557 14.9414 96.0366 15.1172 95.271 15.1172C94.7514 15.1172 94.2886 15.0234 93.8823 14.8359C93.4761 14.6484 93.1597 14.3906 92.9331 14.0625C92.7065 13.7344 92.5932 13.3809 92.5932 13.002H93.9761C93.9956 13.3379 94.1225 13.5977 94.3569 13.7812C94.5913 13.9609 94.9018 14.0508 95.2886 14.0508C95.6636 14.0508 95.9487 13.9805 96.144 13.8398C96.3393 13.6953 96.437 13.5078 96.437 13.2773ZM101.874 15.1172C100.972 15.1172 100.24 14.834 99.6772 14.2676C99.1186 13.6973 98.8393 12.9395 98.8393 11.9941V11.8184C98.8393 11.1855 98.9604 10.6211 99.2026 10.125C99.4487 9.625 99.7925 9.23633 100.234 8.95898C100.675 8.68164 101.167 8.54297 101.71 8.54297C102.574 8.54297 103.24 8.81836 103.708 9.36914C104.181 9.91992 104.417 10.6992 104.417 11.707V12.2812H100.275C100.318 12.8047 100.492 13.2188 100.796 13.5234C101.105 13.8281 101.492 13.9805 101.957 13.9805C102.609 13.9805 103.14 13.7168 103.55 13.1895L104.318 13.9219C104.064 14.3008 103.724 14.5957 103.298 14.8066C102.876 15.0137 102.402 15.1172 101.874 15.1172ZM101.705 9.68555C101.314 9.68555 100.998 9.82227 100.755 10.0957C100.517 10.3691 100.365 10.75 100.298 11.2383H103.011V11.1328C102.98 10.6562 102.853 10.2969 102.63 10.0547C102.408 9.80859 102.099 9.68555 101.705 9.68555Z" fill="#010101" fill-opacity="0.3"/>
<path d="M43.6405 12.1426L45.8085 5.46875H47.4374L44.3671 14H42.9315L39.8729 5.46875H41.496L43.6405 12.1426ZM49.7811 14H48.3573V7.66016H49.7811V14ZM48.2694 6.01367C48.2694 5.79492 48.3378 5.61328 48.4745 5.46875C48.6151 5.32422 48.8143 5.25195 49.0721 5.25195C49.3299 5.25195 49.5292 5.32422 49.6698 5.46875C49.8104 5.61328 49.8807 5.79492 49.8807 6.01367C49.8807 6.22852 49.8104 6.4082 49.6698 6.55273C49.5292 6.69336 49.3299 6.76367 49.0721 6.76367C48.8143 6.76367 48.6151 6.69336 48.4745 6.55273C48.3378 6.4082 48.2694 6.22852 48.2694 6.01367ZM54.1288 14.1172C53.2264 14.1172 52.494 13.834 51.9315 13.2676C51.3729 12.6973 51.0936 11.9395 51.0936 10.9941V10.8184C51.0936 10.1855 51.2147 9.62109 51.4569 9.125C51.703 8.625 52.0467 8.23633 52.4881 7.95898C52.9296 7.68164 53.4217 7.54297 53.9647 7.54297C54.828 7.54297 55.494 7.81836 55.9628 8.36914C56.4354 8.91992 56.6717 9.69922 56.6717 10.707V11.2812H52.5292C52.5721 11.8047 52.746 12.2188 53.0506 12.5234C53.3592 12.8281 53.746 12.9805 54.2108 12.9805C54.8631 12.9805 55.3944 12.7168 55.8046 12.1895L56.5721 12.9219C56.3182 13.3008 55.9784 13.5957 55.5526 13.8066C55.1307 14.0137 54.6561 14.1172 54.1288 14.1172ZM53.9588 8.68555C53.5682 8.68555 53.2518 8.82227 53.0096 9.0957C52.7713 9.36914 52.619 9.75 52.5526 10.2383H55.2655V10.1328C55.2342 9.65625 55.1073 9.29688 54.8846 9.05469C54.662 8.80859 54.3534 8.68555 53.9588 8.68555ZM59.5663 6.11914V7.66016H60.6854V8.71484H59.5663V12.2539C59.5663 12.4961 59.6131 12.6719 59.7069 12.7812C59.8046 12.8867 59.9764 12.9395 60.2225 12.9395C60.3866 12.9395 60.5526 12.9199 60.7206 12.8809V13.9824C60.3963 14.0723 60.0838 14.1172 59.7831 14.1172C58.6893 14.1172 58.1424 13.5137 58.1424 12.3066V8.71484H57.0995V7.66016H58.1424V6.11914H59.5663ZM63.0995 7.66016L63.1405 8.39258C63.6092 7.82617 64.2245 7.54297 64.9862 7.54297C66.3065 7.54297 66.9784 8.29883 67.0018 9.81055V14H65.578V9.89258C65.578 9.49023 65.4901 9.19336 65.3143 9.00195C65.1424 8.80664 64.8592 8.70898 64.4647 8.70898C63.8905 8.70898 63.4628 8.96875 63.1815 9.48828V14H61.7577V7.66016H63.0995ZM72.246 14C72.1835 13.8789 72.1288 13.6816 72.0819 13.4082C71.6288 13.8809 71.0741 14.1172 70.4178 14.1172C69.7811 14.1172 69.2616 13.9355 68.8592 13.5723C68.4569 13.209 68.2557 12.7598 68.2557 12.2246C68.2557 11.5488 68.5057 11.0312 69.0057 10.6719C69.5096 10.3086 70.2284 10.127 71.162 10.127H72.035V9.71094C72.035 9.38281 71.9432 9.12109 71.7596 8.92578C71.576 8.72656 71.2967 8.62695 70.9217 8.62695C70.5975 8.62695 70.3319 8.70898 70.1249 8.87305C69.9178 9.0332 69.8143 9.23828 69.8143 9.48828H68.3905C68.3905 9.14062 68.5057 8.81641 68.7362 8.51562C68.9667 8.21094 69.2792 7.97266 69.6737 7.80078C70.0721 7.62891 70.5155 7.54297 71.0038 7.54297C71.746 7.54297 72.3378 7.73047 72.7792 8.10547C73.2206 8.47656 73.4471 9 73.4588 9.67578V12.5352C73.4588 13.1055 73.5389 13.5605 73.6991 13.9004V14H72.246ZM70.6815 12.9746C70.9628 12.9746 71.2264 12.9062 71.4725 12.7695C71.7225 12.6328 71.91 12.4492 72.035 12.2188V11.0234H71.2674C70.7401 11.0234 70.3436 11.1152 70.078 11.2988C69.8124 11.4824 69.6796 11.7422 69.6796 12.0781C69.6796 12.3516 69.7694 12.5703 69.9491 12.7344C70.1327 12.8945 70.3768 12.9746 70.6815 12.9746ZM76.2889 7.66016L76.3299 8.32227C76.7753 7.80273 77.3846 7.54297 78.1581 7.54297C79.0057 7.54297 79.5858 7.86719 79.8983 8.51562C80.3592 7.86719 81.0077 7.54297 81.8436 7.54297C82.5428 7.54297 83.0624 7.73633 83.4022 8.12305C83.746 8.50977 83.9217 9.08008 83.9296 9.83398V14H82.5057V9.875C82.5057 9.47266 82.4178 9.17773 82.2421 8.99023C82.0663 8.80273 81.7753 8.70898 81.369 8.70898C81.0448 8.70898 80.7792 8.79688 80.5721 8.97266C80.369 9.14453 80.2264 9.37109 80.1444 9.65234L80.1503 14H78.7264V9.82812C78.7069 9.08203 78.326 8.70898 77.5838 8.70898C77.0135 8.70898 76.6092 8.94141 76.371 9.40625V14H74.9471V7.66016H76.2889ZM88.1835 14.1172C87.2811 14.1172 86.5487 13.834 85.9862 13.2676C85.4276 12.6973 85.1483 11.9395 85.1483 10.9941V10.8184C85.1483 10.1855 85.2694 9.62109 85.5116 9.125C85.7577 8.625 86.1014 8.23633 86.5428 7.95898C86.9842 7.68164 87.4764 7.54297 88.0194 7.54297C88.8827 7.54297 89.5487 7.81836 90.0174 8.36914C90.4901 8.91992 90.7264 9.69922 90.7264 10.707V11.2812H86.5838C86.6268 11.8047 86.8006 12.2188 87.1053 12.5234C87.4139 12.8281 87.8006 12.9805 88.2655 12.9805C88.9178 12.9805 89.4491 12.7168 89.8592 12.1895L90.6268 12.9219C90.3729 13.3008 90.0331 13.5957 89.6073 13.8066C89.1854 14.0137 88.7108 14.1172 88.1835 14.1172ZM88.0135 8.68555C87.6229 8.68555 87.3065 8.82227 87.0643 9.0957C86.826 9.36914 86.6737 9.75 86.6073 10.2383H89.3202V10.1328C89.2889 9.65625 89.162 9.29688 88.9393 9.05469C88.7167 8.80859 88.4081 8.68555 88.0135 8.68555ZM95.3905 12.2773C95.3905 12.0234 95.285 11.8301 95.0741 11.6973C94.8671 11.5645 94.5213 11.4473 94.037 11.3457C93.5526 11.2441 93.1483 11.1152 92.8241 10.959C92.1131 10.6152 91.7577 10.1172 91.7577 9.46484C91.7577 8.91797 91.9881 8.46094 92.4491 8.09375C92.91 7.72656 93.496 7.54297 94.2069 7.54297C94.9647 7.54297 95.576 7.73047 96.0409 8.10547C96.5096 8.48047 96.744 8.9668 96.744 9.56445H95.3202C95.3202 9.29102 95.2186 9.06445 95.0155 8.88477C94.8124 8.70117 94.5428 8.60938 94.2069 8.60938C93.8944 8.60938 93.6385 8.68164 93.4393 8.82617C93.244 8.9707 93.1463 9.16406 93.1463 9.40625C93.1463 9.625 93.2381 9.79492 93.4217 9.91602C93.6053 10.0371 93.9764 10.1602 94.535 10.2852C95.0936 10.4062 95.5311 10.5527 95.8475 10.7246C96.1678 10.8926 96.4042 11.0957 96.5565 11.334C96.7128 11.5723 96.7909 11.8613 96.7909 12.2012C96.7909 12.7715 96.5546 13.2344 96.0819 13.5898C95.6092 13.9414 94.9901 14.1172 94.2245 14.1172C93.7049 14.1172 93.2421 14.0234 92.8358 13.8359C92.4296 13.6484 92.1131 13.3906 91.8866 13.0625C91.66 12.7344 91.5467 12.3809 91.5467 12.002H92.9296C92.9491 12.3379 93.076 12.5977 93.3104 12.7812C93.5448 12.9609 93.8553 13.0508 94.2421 13.0508C94.6171 13.0508 94.9022 12.9805 95.0975 12.8398C95.2928 12.6953 95.3905 12.5078 95.3905 12.2773ZM100.828 14.1172C99.9256 14.1172 99.1932 13.834 98.6307 13.2676C98.0721 12.6973 97.7928 11.9395 97.7928 10.9941V10.8184C97.7928 10.1855 97.9139 9.62109 98.1561 9.125C98.4022 8.625 98.746 8.23633 99.1874 7.95898C99.6288 7.68164 100.121 7.54297 100.664 7.54297C101.527 7.54297 102.193 7.81836 102.662 8.36914C103.135 8.91992 103.371 9.69922 103.371 10.707V11.2812H99.2284C99.2713 11.8047 99.4452 12.2188 99.7499 12.5234C100.058 12.8281 100.445 12.9805 100.91 12.9805C101.562 12.9805 102.094 12.7168 102.504 12.1895L103.271 12.9219C103.017 13.3008 102.678 13.5957 102.252 13.8066C101.83 14.0137 101.355 14.1172 100.828 14.1172ZM100.658 8.68555C100.267 8.68555 99.951 8.82227 99.7088 9.0957C99.4706 9.36914 99.3182 9.75 99.2518 10.2383H101.965V10.1328C101.933 9.65625 101.807 9.29688 101.584 9.05469C101.361 8.80859 101.053 8.68555 100.658 8.68555Z" fill="white"/>
<path d="M36.7395 9.81703L34.1114 9.45204L32.9364 7.17607C32.9043 7.11375 32.8516 7.06331 32.7864 7.03264C32.6228 6.95549 32.4241 7.01979 32.3422 7.17607L31.1674 9.45204L28.5392 9.81703C28.4668 9.82692 28.4005 9.85956 28.3498 9.90902C28.2885 9.96924 28.2547 10.0503 28.2558 10.1343C28.257 10.2183 28.2931 10.2984 28.356 10.3571L30.2576 12.1286L29.8083 14.6301C29.7977 14.6883 29.8044 14.7481 29.8278 14.8029C29.851 14.8576 29.8898 14.905 29.9399 14.9397C29.9898 14.9744 30.049 14.995 30.1106 14.9992C30.1723 15.0034 30.2339 14.991 30.2886 14.9634L32.6393 13.7824L34.9901 14.9634C35.0544 14.9961 35.1289 15.007 35.2003 14.9951C35.3804 14.9654 35.5015 14.8022 35.4705 14.6301L35.0212 12.1286L36.9227 10.3571C36.9745 10.3086 37.0086 10.2453 37.019 10.1761C37.0469 10.003 36.9206 9.84275 36.7395 9.81703Z" fill="#010101" fill-opacity="0.3"/>
<path d="M36.7395 8.81703L34.1114 8.45204L32.9364 6.17607C32.9043 6.11375 32.8516 6.06331 32.7864 6.03264C32.6228 5.95549 32.4241 6.01979 32.3422 6.17607L31.1674 8.45204L28.5392 8.81703C28.4668 8.82692 28.4005 8.85956 28.3498 8.90902C28.2885 8.96924 28.2547 9.05026 28.2558 9.13428C28.257 9.2183 28.2931 9.29844 28.356 9.35709L30.2576 11.1286L29.8083 13.6301C29.7977 13.6883 29.8044 13.7481 29.8278 13.8029C29.851 13.8576 29.8898 13.905 29.9399 13.9397C29.9898 13.9744 30.049 13.995 30.1106 13.9992C30.1723 14.0034 30.2339 13.991 30.2886 13.9634L32.6393 12.7824L34.9901 13.9634C35.0544 13.9961 35.1289 14.007 35.2003 13.9951C35.3804 13.9654 35.5015 13.8022 35.4705 13.6301L35.0212 11.1286L36.9227 9.35709C36.9745 9.30862 37.0086 9.24532 37.019 9.17608C37.0469 9.00298 36.9206 8.84275 36.7395 8.81703Z" fill="#FFD500"/>
<path d="M0 0H110V20H0V0Z" fill="url(#paint0_linear)"/>
<path d="M12.572 11.8945C12.572 12.8789 12.3513 13.6621 11.9099 14.2441C11.4724 14.8262 10.8689 15.1172 10.0994 15.1172C9.35719 15.1172 8.77907 14.8496 8.36501 14.3145L8.29469 15H7.00563V6H8.42946V9.26953C8.83961 8.78516 9.39235 8.54297 10.0877 8.54297C10.8611 8.54297 11.4685 8.83008 11.9099 9.4043C12.3513 9.97852 12.572 10.7812 12.572 11.8125V11.8945ZM11.1482 11.7715C11.1482 11.084 11.0271 10.5684 10.7849 10.2246C10.5427 9.88086 10.1912 9.70898 9.73024 9.70898C9.11305 9.70898 8.67946 9.97852 8.42946 10.5176V13.1309C8.68336 13.6816 9.12086 13.957 9.74196 13.957C10.1873 13.957 10.531 13.791 10.7732 13.459C11.0154 13.127 11.1404 12.625 11.1482 11.9531V11.7715ZM15.9177 12.9609L17.2068 8.66016H18.7244L16.2048 15.9609C15.8181 17.0273 15.1619 17.5605 14.2361 17.5605C14.0291 17.5605 13.8006 17.5254 13.5506 17.4551V16.3535L13.8201 16.3711C14.1795 16.3711 14.449 16.3047 14.6287 16.1719C14.8123 16.043 14.9568 15.8242 15.0623 15.5156L15.2673 14.9707L13.0408 8.66016H14.5759L15.9177 12.9609Z" fill="#010101" fill-opacity="0.3"/>
<path d="M11.5255 10.8945C11.5255 11.8789 11.3048 12.6621 10.8634 13.2441C10.4259 13.8262 9.8224 14.1172 9.05287 14.1172C8.31068 14.1172 7.73256 13.8496 7.3185 13.3145L7.24818 14H5.95912V5H7.38295V8.26953C7.79311 7.78516 8.34584 7.54297 9.04115 7.54297C9.81459 7.54297 10.422 7.83008 10.8634 8.4043C11.3048 8.97852 11.5255 9.78125 11.5255 10.8125V10.8945ZM10.1017 10.7715C10.1017 10.084 9.98061 9.56836 9.73842 9.22461C9.49623 8.88086 9.14467 8.70898 8.68373 8.70898C8.06654 8.70898 7.63295 8.97852 7.38295 9.51758V12.1309C7.63686 12.6816 8.07436 12.957 8.69545 12.957C9.14076 12.957 9.48451 12.791 9.7267 12.459C9.96889 12.127 10.0939 11.625 10.1017 10.9531V10.7715ZM14.8712 11.9609L16.1603 7.66016H17.6779L15.1583 14.9609C14.7716 16.0273 14.1154 16.5605 13.1896 16.5605C12.9826 16.5605 12.754 16.5254 12.504 16.4551V15.3535L12.7736 15.3711C13.1329 15.3711 13.4025 15.3047 13.5822 15.1719C13.7658 15.043 13.9103 14.8242 14.0158 14.5156L14.2208 13.9707L11.9943 7.66016H13.5294L14.8712 11.9609Z" fill="white"/>
</g>
<defs>
<linearGradient id="paint0_linear" x1="42.6357" y1="6.03141e-08" x2="42.6357" y2="20" gradientUnits="userSpaceOnUse">
<stop stop-color="#BBBBBB" stop-opacity="0.1"/>
<stop offset="1" stop-opacity="0.1"/>
</linearGradient>
</defs>
</svg>
