<svg width="133" height="20" viewBox="0 0 133 20" fill="none" xmlns="http://www.w3.org/2000/svg">
<path d="M0 3C0 1.34315 1.34315 0 3 0H38V20H3C1.34315 20 0 18.6569 0 17V3Z" fill="url(#paint0_linear)"/>
<g filter="url(#filter0_d)">
<path d="M7.099 8.313H8.034V7.84C8.034 7.48067 8.078 7.191 8.166 6.971C8.254 6.74367 8.37133 6.57133 8.518 6.454C8.66467 6.32933 8.82967 6.24867 9.013 6.212C9.20367 6.168 9.40167 6.146 9.607 6.146C10.0103 6.146 10.3037 6.17167 10.487 6.223V7.202C10.4063 7.18 10.3183 7.16533 10.223 7.158C10.135 7.14333 10.0287 7.136 9.904 7.136C9.73533 7.136 9.58867 7.17633 9.464 7.257C9.34667 7.33767 9.288 7.49533 9.288 7.73V8.313H10.355V9.248H9.288V14H8.034V9.248H7.099V8.313ZM11.3297 8.313H12.5067V9.413H12.5287C12.5654 9.259 12.6351 9.10867 12.7377 8.962C12.8477 8.81533 12.9761 8.68333 13.1227 8.566C13.2767 8.44133 13.4454 8.34233 13.6287 8.269C13.8121 8.19567 13.9991 8.159 14.1897 8.159C14.3364 8.159 14.4354 8.16267 14.4867 8.17C14.5454 8.17733 14.6041 8.18467 14.6627 8.192V9.402C14.5747 9.38733 14.4831 9.37633 14.3877 9.369C14.2997 9.35433 14.2117 9.347 14.1237 9.347C13.9111 9.347 13.7094 9.391 13.5187 9.479C13.3354 9.55967 13.1741 9.68433 13.0347 9.853C12.8954 10.0143 12.7854 10.216 12.7047 10.458C12.6241 10.7 12.5837 10.9787 12.5837 11.294V14H11.3297V8.313ZM17.8106 14.154C17.3559 14.154 16.9489 14.0807 16.5896 13.934C16.2376 13.78 15.9369 13.571 15.6876 13.307C15.4456 13.043 15.2586 12.7277 15.1266 12.361C15.0019 11.9943 14.9396 11.591 14.9396 11.151C14.9396 10.7183 15.0019 10.3187 15.1266 9.952C15.2586 9.58533 15.4456 9.27 15.6876 9.006C15.9369 8.742 16.2376 8.53667 16.5896 8.39C16.9489 8.236 17.3559 8.159 17.8106 8.159C18.2652 8.159 18.6686 8.236 19.0206 8.39C19.3799 8.53667 19.6806 8.742 19.9226 9.006C20.1719 9.27 20.3589 9.58533 20.4836 9.952C20.6156 10.3187 20.6816 10.7183 20.6816 11.151C20.6816 11.591 20.6156 11.9943 20.4836 12.361C20.3589 12.7277 20.1719 13.043 19.9226 13.307C19.6806 13.571 19.3799 13.78 19.0206 13.934C18.6686 14.0807 18.2652 14.154 17.8106 14.154ZM17.8106 13.164C18.0892 13.164 18.3312 13.1053 18.5366 12.988C18.7419 12.8707 18.9106 12.7167 19.0426 12.526C19.1746 12.3353 19.2699 12.1227 19.3286 11.888C19.3946 11.646 19.4276 11.4003 19.4276 11.151C19.4276 10.909 19.3946 10.667 19.3286 10.425C19.2699 10.183 19.1746 9.97033 19.0426 9.787C18.9106 9.59633 18.7419 9.44233 18.5366 9.325C18.3312 9.20767 18.0892 9.149 17.8106 9.149C17.5319 9.149 17.2899 9.20767 17.0846 9.325C16.8792 9.44233 16.7106 9.59633 16.5786 9.787C16.4466 9.97033 16.3476 10.183 16.2816 10.425C16.2229 10.667 16.1936 10.909 16.1936 11.151C16.1936 11.4003 16.2229 11.646 16.2816 11.888C16.3476 12.1227 16.4466 12.3353 16.5786 12.526C16.7106 12.7167 16.8792 12.8707 17.0846 12.988C17.2899 13.1053 17.5319 13.164 17.8106 13.164ZM21.9241 8.313H23.1121V9.105H23.1451C23.2404 8.96567 23.3431 8.83733 23.4531 8.72C23.5631 8.60267 23.6841 8.50367 23.8161 8.423C23.9554 8.34233 24.1131 8.28 24.2891 8.236C24.4651 8.18467 24.6667 8.159 24.8941 8.159C25.2387 8.159 25.5577 8.236 25.8511 8.39C26.1517 8.544 26.3644 8.78233 26.4891 9.105C26.7017 8.81167 26.9474 8.58067 27.2261 8.412C27.5047 8.24333 27.8531 8.159 28.2711 8.159C28.8724 8.159 29.3381 8.30567 29.6681 8.599C30.0054 8.89233 30.1741 9.38367 30.1741 10.073V14H28.9201V10.678C28.9201 10.4507 28.9127 10.2453 28.8981 10.062C28.8834 9.87133 28.8394 9.71 28.7661 9.578C28.7001 9.43867 28.5974 9.33233 28.4581 9.259C28.3187 9.18567 28.1281 9.149 27.8861 9.149C27.4607 9.149 27.1527 9.281 26.9621 9.545C26.7714 9.809 26.6761 10.183 26.6761 10.667V14H25.4221V10.348C25.4221 9.952 25.3487 9.655 25.2021 9.457C25.0627 9.25167 24.8024 9.149 24.4211 9.149C24.2597 9.149 24.1021 9.182 23.9481 9.248C23.8014 9.314 23.6694 9.40933 23.5521 9.534C23.4421 9.65867 23.3504 9.81267 23.2771 9.996C23.2111 10.1793 23.1781 10.3883 23.1781 10.623V14H21.9241V8.313Z" fill="url(#paint1_linear)"/>
</g>
<path d="M38.25 0.25H130C131.519 0.25 132.75 1.48122 132.75 3V17C132.75 18.5188 131.519 19.75 130 19.75H38.25V0.25Z" fill="url(#paint2_linear)"/>
<g filter="url(#filter1_d)">
<path d="M44.945 6.146H46.375L48.344 12.361H48.366L50.379 6.146H51.776L49.092 14H47.563L44.945 6.146ZM52.725 6.146H53.979V7.334H52.725V6.146ZM52.725 8.313H53.979V14H52.725V8.313ZM59.4504 10.656C59.4357 10.458 59.3917 10.2673 59.3184 10.084C59.2524 9.90067 59.157 9.743 59.0324 9.611C58.915 9.47167 58.7684 9.36167 58.5924 9.281C58.4237 9.193 58.233 9.149 58.0204 9.149C57.8004 9.149 57.5987 9.18933 57.4154 9.27C57.2394 9.34333 57.0854 9.44967 56.9534 9.589C56.8287 9.721 56.726 9.87867 56.6454 10.062C56.572 10.2453 56.5317 10.4433 56.5244 10.656H59.4504ZM56.5244 11.481C56.5244 11.701 56.5537 11.9137 56.6124 12.119C56.6784 12.3243 56.7737 12.504 56.8984 12.658C57.023 12.812 57.1807 12.9367 57.3714 13.032C57.562 13.12 57.7894 13.164 58.0534 13.164C58.42 13.164 58.7134 13.087 58.9334 12.933C59.1607 12.7717 59.3294 12.5333 59.4394 12.218H60.6274C60.5614 12.526 60.4477 12.801 60.2864 13.043C60.125 13.285 59.9307 13.4903 59.7034 13.659C59.476 13.8203 59.2194 13.9413 58.9334 14.022C58.6547 14.11 58.3614 14.154 58.0534 14.154C57.606 14.154 57.21 14.0807 56.8654 13.934C56.5207 13.7873 56.2274 13.582 55.9854 13.318C55.7507 13.054 55.571 12.7387 55.4464 12.372C55.329 12.0053 55.2704 11.602 55.2704 11.162C55.2704 10.7587 55.3327 10.3773 55.4574 10.018C55.5894 9.65133 55.7727 9.33233 56.0074 9.061C56.2494 8.78233 56.539 8.56233 56.8764 8.401C57.2137 8.23967 57.595 8.159 58.0204 8.159C58.4677 8.159 58.8674 8.25433 59.2194 8.445C59.5787 8.62833 59.8757 8.874 60.1104 9.182C60.345 9.49 60.5137 9.84567 60.6164 10.249C60.7264 10.645 60.7557 11.0557 60.7044 11.481H56.5244ZM61.2857 8.313H62.2317V6.608H63.4857V8.313H64.6187V9.248H63.4857V12.284C63.4857 12.416 63.4893 12.5297 63.4967 12.625C63.5113 12.7203 63.537 12.801 63.5737 12.867C63.6177 12.933 63.68 12.9843 63.7607 13.021C63.8413 13.0503 63.9513 13.065 64.0907 13.065C64.1787 13.065 64.2667 13.065 64.3547 13.065C64.4427 13.0577 64.5307 13.043 64.6187 13.021V13.989C64.4793 14.0037 64.3437 14.0183 64.2117 14.033C64.0797 14.0477 63.944 14.055 63.8047 14.055C63.4747 14.055 63.207 14.0257 63.0017 13.967C62.8037 13.901 62.646 13.8093 62.5287 13.692C62.4187 13.5673 62.3417 13.4133 62.2977 13.23C62.261 13.0467 62.239 12.8377 62.2317 12.603V9.248H61.2857V8.313ZM65.7207 8.313H66.9087V9.149L66.9307 9.171C67.1214 8.85567 67.3707 8.61 67.6787 8.434C67.9867 8.25067 68.3277 8.159 68.7017 8.159C69.3251 8.159 69.8164 8.32033 70.1757 8.643C70.5351 8.96567 70.7147 9.44967 70.7147 10.095V14H69.4607V10.425C69.4461 9.97767 69.3507 9.655 69.1747 9.457C68.9987 9.25167 68.7237 9.149 68.3497 9.149C68.1371 9.149 67.9464 9.18933 67.7777 9.27C67.6091 9.34333 67.4661 9.44967 67.3487 9.589C67.2314 9.721 67.1397 9.87867 67.0737 10.062C67.0077 10.2453 66.9747 10.4397 66.9747 10.645V14H65.7207V8.313ZM77.0001 12.735C77.0001 12.889 77.0185 12.999 77.0551 13.065C77.0991 13.131 77.1798 13.164 77.2971 13.164C77.3338 13.164 77.3778 13.164 77.4291 13.164C77.4805 13.164 77.5391 13.1567 77.6051 13.142V14.011C77.5611 14.0257 77.5025 14.0403 77.4291 14.055C77.3631 14.077 77.2935 14.0953 77.2201 14.11C77.1468 14.1247 77.0735 14.1357 77.0001 14.143C76.9268 14.1503 76.8645 14.154 76.8131 14.154C76.5565 14.154 76.3438 14.1027 76.1751 14C76.0065 13.8973 75.8965 13.7177 75.8451 13.461C75.5958 13.703 75.2878 13.879 74.9211 13.989C74.5618 14.099 74.2135 14.154 73.8761 14.154C73.6195 14.154 73.3738 14.1173 73.1391 14.044C72.9045 13.978 72.6955 13.879 72.5121 13.747C72.3361 13.6077 72.1931 13.4353 72.0831 13.23C71.9805 13.0173 71.9291 12.7717 71.9291 12.493C71.9291 12.141 71.9915 11.855 72.1161 11.635C72.2481 11.415 72.4168 11.2427 72.6221 11.118C72.8348 10.9933 73.0695 10.9053 73.3261 10.854C73.5901 10.7953 73.8541 10.7513 74.1181 10.722C74.3455 10.678 74.5618 10.6487 74.7671 10.634C74.9725 10.612 75.1521 10.579 75.3061 10.535C75.4675 10.491 75.5921 10.425 75.6801 10.337C75.7755 10.2417 75.8231 10.1023 75.8231 9.919C75.8231 9.75767 75.7828 9.62567 75.7021 9.523C75.6288 9.42033 75.5335 9.34333 75.4161 9.292C75.3061 9.23333 75.1815 9.19667 75.0421 9.182C74.9028 9.16 74.7708 9.149 74.6461 9.149C74.2941 9.149 74.0045 9.22233 73.7771 9.369C73.5498 9.51567 73.4215 9.743 73.3921 10.051H72.1381C72.1601 9.68433 72.2481 9.38 72.4021 9.138C72.5561 8.896 72.7505 8.70167 72.9851 8.555C73.2271 8.40833 73.4985 8.30567 73.7991 8.247C74.0998 8.18833 74.4078 8.159 74.7231 8.159C75.0018 8.159 75.2768 8.18833 75.5481 8.247C75.8195 8.30567 76.0615 8.401 76.2741 8.533C76.4941 8.665 76.6701 8.83733 76.8021 9.05C76.9341 9.25533 77.0001 9.50833 77.0001 9.809V12.735ZM75.7461 11.151C75.5555 11.2757 75.3208 11.3527 75.0421 11.382C74.7635 11.404 74.4848 11.4407 74.2061 11.492C74.0741 11.514 73.9458 11.547 73.8211 11.591C73.6965 11.6277 73.5865 11.6827 73.4911 11.756C73.3958 11.822 73.3188 11.9137 73.2601 12.031C73.2088 12.141 73.1831 12.2767 73.1831 12.438C73.1831 12.5773 73.2235 12.6947 73.3041 12.79C73.3848 12.8853 73.4801 12.9623 73.5901 13.021C73.7075 13.0723 73.8321 13.109 73.9641 13.131C74.1035 13.153 74.2281 13.164 74.3381 13.164C74.4775 13.164 74.6278 13.1457 74.7891 13.109C74.9505 13.0723 75.1008 13.01 75.2401 12.922C75.3868 12.834 75.5078 12.724 75.6031 12.592C75.6985 12.4527 75.7461 12.284 75.7461 12.086V11.151ZM78.5495 8.313H79.7375V9.105H79.7705C79.8658 8.96567 79.9685 8.83733 80.0785 8.72C80.1885 8.60267 80.3095 8.50367 80.4415 8.423C80.5808 8.34233 80.7385 8.28 80.9145 8.236C81.0905 8.18467 81.2921 8.159 81.5195 8.159C81.8641 8.159 82.1831 8.236 82.4765 8.39C82.7771 8.544 82.9898 8.78233 83.1145 9.105C83.3271 8.81167 83.5728 8.58067 83.8515 8.412C84.1301 8.24333 84.4785 8.159 84.8965 8.159C85.4978 8.159 85.9635 8.30567 86.2935 8.599C86.6308 8.89233 86.7995 9.38367 86.7995 10.073V14H85.5455V10.678C85.5455 10.4507 85.5381 10.2453 85.5235 10.062C85.5088 9.87133 85.4648 9.71 85.3915 9.578C85.3255 9.43867 85.2228 9.33233 85.0835 9.259C84.9441 9.18567 84.7535 9.149 84.5115 9.149C84.0861 9.149 83.7781 9.281 83.5875 9.545C83.3968 9.809 83.3015 10.183 83.3015 10.667V14H82.0475V10.348C82.0475 9.952 81.9741 9.655 81.8275 9.457C81.6881 9.25167 81.4278 9.149 81.0465 9.149C80.8851 9.149 80.7275 9.182 80.5735 9.248C80.4268 9.314 80.2948 9.40933 80.1775 9.534C80.0675 9.65867 79.9758 9.81267 79.9025 9.996C79.8365 10.1793 79.8035 10.3883 79.8035 10.623V14H78.5495V8.313ZM91.0653 8.313H92.3963L93.5073 12.559H93.5293L94.5963 8.313H95.8613L96.8843 12.559H96.9063L98.0613 8.313H99.3373L97.5553 14H96.2683L95.2123 9.776H95.1903L94.1453 14H92.8253L91.0653 8.313ZM100.377 6.146H101.631V7.334H100.377V6.146ZM100.377 8.313H101.631V14H100.377V8.313ZM102.625 8.313H103.571V6.608H104.825V8.313H105.958V9.248H104.825V12.284C104.825 12.416 104.829 12.5297 104.836 12.625C104.851 12.7203 104.876 12.801 104.913 12.867C104.957 12.933 105.019 12.9843 105.1 13.021C105.181 13.0503 105.291 13.065 105.43 13.065C105.518 13.065 105.606 13.065 105.694 13.065C105.782 13.0577 105.87 13.043 105.958 13.021V13.989C105.819 14.0037 105.683 14.0183 105.551 14.033C105.419 14.0477 105.283 14.055 105.144 14.055C104.814 14.055 104.546 14.0257 104.341 13.967C104.143 13.901 103.985 13.8093 103.868 13.692C103.758 13.5673 103.681 13.4133 103.637 13.23C103.6 13.0467 103.578 12.8377 103.571 12.603V9.248H102.625V8.313ZM107.06 6.146H108.314V9.061H108.336C108.49 8.80433 108.718 8.59167 109.018 8.423C109.326 8.247 109.667 8.159 110.041 8.159C110.665 8.159 111.156 8.32033 111.515 8.643C111.875 8.96567 112.054 9.44967 112.054 10.095V14H110.8V10.425C110.786 9.97767 110.69 9.655 110.514 9.457C110.338 9.25167 110.063 9.149 109.689 9.149C109.477 9.149 109.286 9.18933 109.117 9.27C108.949 9.34333 108.806 9.44967 108.688 9.589C108.571 9.721 108.479 9.87867 108.413 10.062C108.347 10.2453 108.314 10.4397 108.314 10.645V14H107.06V6.146Z" fill="#3F3F3F"/>
</g>
<rect x="38" y="1" width="0.5" height="17" fill="white" fill-opacity="0.1"/>
<g filter="url(#filter2_d)">
<path d="M124.714 7.63944C124.575 7.31862 124.376 7.0279 124.126 6.78355C123.876 6.53846 123.581 6.3437 123.258 6.20985C122.922 6.0705 122.562 5.99917 122.199 6.00001C121.689 6.00001 121.192 6.13956 120.76 6.40315C120.657 6.4662 120.559 6.53546 120.466 6.61092C120.373 6.53546 120.274 6.4662 120.171 6.40315C119.739 6.13956 119.242 6.00001 118.732 6.00001C118.365 6.00001 118.009 6.0703 117.674 6.20985C117.349 6.34423 117.056 6.53753 116.805 6.78355C116.555 7.02762 116.355 7.31841 116.217 7.63944C116.073 7.97332 116 8.32788 116 8.69277C116 9.03699 116.07 9.39568 116.21 9.76057C116.327 10.0655 116.494 10.3818 116.708 10.7012C117.047 11.2067 117.513 11.7339 118.092 12.2683C119.051 13.1542 120.001 13.7661 120.042 13.7909L120.287 13.9481C120.395 14.0173 120.535 14.0173 120.643 13.9481L120.888 13.7909C120.929 13.7651 121.878 13.1542 122.838 12.2683C123.417 11.7339 123.883 11.2067 124.222 10.7012C124.436 10.3818 124.604 10.0655 124.72 9.76057C124.86 9.39568 124.93 9.03699 124.93 8.69277C124.931 8.32788 124.858 7.97332 124.714 7.63944Z" fill="url(#paint3_linear)"/>
</g>
<path d="M38.25 0.25H130C131.519 0.25 132.75 1.48122 132.75 3V17C132.75 18.5188 131.519 19.75 130 19.75H38.25V0.25Z" stroke="url(#paint4_linear)" stroke-width="0.5"/>
<defs>
<filter id="filter0_d" x="6.599" y="6.146" width="24.0751" height="9.008" filterUnits="userSpaceOnUse" color-interpolation-filters="sRGB">
<feFlood flood-opacity="0" result="BackgroundImageFix"/>
<feColorMatrix in="SourceAlpha" type="matrix" values="0 0 0 0 0 0 0 0 0 0 0 0 0 0 0 0 0 0 127 0"/>
<feOffset dy="0.5"/>
<feGaussianBlur stdDeviation="0.25"/>
<feColorMatrix type="matrix" values="0 0 0 0 0 0 0 0 0 0 0 0 0 0 0 0 0 0 0.25 0"/>
<feBlend mode="normal" in2="BackgroundImageFix" result="effect1_dropShadow"/>
<feBlend mode="normal" in="SourceGraphic" in2="effect1_dropShadow" result="shape"/>
</filter>
<filter id="filter1_d" x="44.445" y="6.146" width="68.1092" height="9.008" filterUnits="userSpaceOnUse" color-interpolation-filters="sRGB">
<feFlood flood-opacity="0" result="BackgroundImageFix"/>
<feColorMatrix in="SourceAlpha" type="matrix" values="0 0 0 0 0 0 0 0 0 0 0 0 0 0 0 0 0 0 127 0"/>
<feOffset dy="0.5"/>
<feGaussianBlur stdDeviation="0.25"/>
<feColorMatrix type="matrix" values="0 0 0 0 0 0 0 0 0 0 0 0 0 0 0 0 0 0 0.25 0"/>
<feBlend mode="normal" in2="BackgroundImageFix" result="effect1_dropShadow"/>
<feBlend mode="normal" in="SourceGraphic" in2="effect1_dropShadow" result="shape"/>
</filter>
<filter id="filter2_d" x="115.5" y="6" width="9.93007" height="9" filterUnits="userSpaceOnUse" color-interpolation-filters="sRGB">
<feFlood flood-opacity="0" result="BackgroundImageFix"/>
<feColorMatrix in="SourceAlpha" type="matrix" values="0 0 0 0 0 0 0 0 0 0 0 0 0 0 0 0 0 0 127 0"/>
<feOffset dy="0.5"/>
<feGaussianBlur stdDeviation="0.25"/>
<feColorMatrix type="matrix" values="0 0 0 0 0 0 0 0 0 0 0 0 0 0 0 0 0 0 0.25 0"/>
<feBlend mode="normal" in2="BackgroundImageFix" result="effect1_dropShadow"/>
<feBlend mode="normal" in="SourceGraphic" in2="effect1_dropShadow" result="shape"/>
</filter>
<linearGradient id="paint0_linear" x1="0" y1="0" x2="0" y2="20" gradientUnits="userSpaceOnUse">
<stop stop-color="#5E5E5E"/>
<stop offset="1" stop-color="#454545"/>
</linearGradient>
<linearGradient id="paint1_linear" x1="19" y1="3" x2="19" y2="16" gradientUnits="userSpaceOnUse">
<stop stop-color="white"/>
<stop offset="1" stop-color="white" stop-opacity="0.9"/>
</linearGradient>
<linearGradient id="paint2_linear" x1="85.5" y1="0" x2="85.5" y2="20" gradientUnits="userSpaceOnUse">
<stop stop-color="#F3F5F5"/>
<stop offset="1" stop-color="#D7D7D7"/>
</linearGradient>
<linearGradient id="paint3_linear" x1="120.465" y1="6" x2="120.465" y2="14" gradientUnits="userSpaceOnUse">
<stop stop-color="#FF3333"/>
<stop offset="1" stop-color="#BF2626"/>
</linearGradient>
<linearGradient id="paint4_linear" x1="85.5" y1="0" x2="85.5" y2="20" gradientUnits="userSpaceOnUse">
<stop stop-color="#E6E6E6"/>
<stop offset="1" stop-color="#CCCCCC"/>
</linearGradient>
</defs>
</svg>
