<svg
  xmlns="http://www.w3.org/2000/svg"
  xmlns:xlink="http://www.w3.org/1999/xlink"
  height="28"
  role="img"
  aria-label="FROM: VIETNAM WITH LOVE"
>
  <g shape-rendering="crispEdges">
    <rect width="50" height="28" fill="#555"/>
    <rect x="50" width="122" height="28" fill="#F8F8F8"/>
  </g>
  <path
    xmlns="http://www.w3.org/2000/svg"
    d="M122.714 8.63944C122.575 8.31862 122.376 8.0279 122.126 7.78355C121.876 7.53846 121.581 7.3437 121.258 7.20985C120.922 7.0705 120.562 6.99917 120.199 7.00001C119.689 7.00001 119.192 7.13956 118.76 7.40315C118.657 7.4662 118.559 7.53546 118.466 7.61092C118.373 7.53546 118.274 7.4662 118.171 7.40315C117.739 7.13956 117.242 7.00001 116.732 7.00001C116.365 7.00001 116.009 7.0703 115.674 7.20985C115.349 7.34423 115.056 7.53753 114.805 7.78355C114.555 8.02762 114.355 8.31841 114.217 8.63944C114.073 8.97332 114 9.32788 114 9.69277C114 10.037 114.07 10.3957 114.21 10.7606C114.327 11.0655 114.494 11.3818 114.708 11.7012C115.047 12.2067 115.513 12.7339 116.092 13.2683C117.051 14.1542 118.001 14.7661 118.042 14.7909L118.287 14.9481C118.395 15.0173 118.535 15.0173 118.643 14.9481L118.888 14.7909C118.929 14.7651 119.878 14.1542 120.838 13.2683C121.417 12.7339 121.883 12.2067 122.222 11.7012C122.436 11.3818 122.604 11.0655 122.72 10.7606C122.86 10.3957 122.93 10.037 122.93 9.69277C122.931 9.32788 122.858 8.97332 122.714 8.63944V8.63944Z"
    fill="#F03030"
    transform="translate(37, 2)"/>
  <g
    fill="#fff"
    text-anchor="middle"
    font-family="Verdana,Geneva,DejaVu Sans,sans-serif"
    text-rendering="geometricPrecision" font-size="100"
  >
    <text fill="#fff" x="240" y="175" transform="scale(.1)">FROM</text>
    <text fill="#010101" x="1020" y="175" font-weight="bold" transform="scale(.1)">VIETNAM WITH </text>
  </g>
</svg>
