<svg width="127" height="20" viewBox="0 0 127 20" fill="none" xmlns="http://www.w3.org/2000/svg">
<path d="M0 3C0 1.34315 1.34315 0 3 0H56V20H3C1.34314 20 0 18.6569 0 17V3Z" fill="url(#paint0_linear)"/>
<g filter="url(#filter0_d)">
<path d="M7.66 8.313H8.848V9.105H8.881C8.97633 8.96567 9.079 8.83733 9.189 8.72C9.299 8.60267 9.42 8.50367 9.552 8.423C9.69133 8.34233 9.849 8.28 10.025 8.236C10.201 8.18467 10.4027 8.159 10.63 8.159C10.9747 8.159 11.2937 8.236 11.587 8.39C11.8877 8.544 12.1003 8.78233 12.225 9.105C12.4377 8.81167 12.6833 8.58067 12.962 8.412C13.2407 8.24333 13.589 8.159 14.007 8.159C14.6083 8.159 15.074 8.30567 15.404 8.599C15.7413 8.89233 15.91 9.38367 15.91 10.073V14H14.656V10.678C14.656 10.4507 14.6487 10.2453 14.634 10.062C14.6193 9.87133 14.5753 9.71 14.502 9.578C14.436 9.43867 14.3333 9.33233 14.194 9.259C14.0547 9.18567 13.864 9.149 13.622 9.149C13.1967 9.149 12.8887 9.281 12.698 9.545C12.5073 9.809 12.412 10.183 12.412 10.667V14H11.158V10.348C11.158 9.952 11.0847 9.655 10.938 9.457C10.7987 9.25167 10.5383 9.149 10.157 9.149C9.99567 9.149 9.838 9.182 9.684 9.248C9.53733 9.314 9.40533 9.40933 9.288 9.534C9.178 9.65867 9.08633 9.81267 9.013 9.996C8.947 10.1793 8.914 10.3883 8.914 10.623V14H7.66V8.313ZM22.1943 12.735C22.1943 12.889 22.2126 12.999 22.2493 13.065C22.2933 13.131 22.374 13.164 22.4913 13.164C22.528 13.164 22.572 13.164 22.6233 13.164C22.6746 13.164 22.7333 13.1567 22.7993 13.142V14.011C22.7553 14.0257 22.6966 14.0403 22.6233 14.055C22.5573 14.077 22.4876 14.0953 22.4143 14.11C22.341 14.1247 22.2676 14.1357 22.1943 14.143C22.121 14.1503 22.0586 14.154 22.0073 14.154C21.7506 14.154 21.538 14.1027 21.3693 14C21.2006 13.8973 21.0906 13.7177 21.0393 13.461C20.79 13.703 20.482 13.879 20.1153 13.989C19.756 14.099 19.4076 14.154 19.0703 14.154C18.8136 14.154 18.568 14.1173 18.3333 14.044C18.0986 13.978 17.8896 13.879 17.7063 13.747C17.5303 13.6077 17.3873 13.4353 17.2773 13.23C17.1746 13.0173 17.1233 12.7717 17.1233 12.493C17.1233 12.141 17.1856 11.855 17.3103 11.635C17.4423 11.415 17.611 11.2427 17.8163 11.118C18.029 10.9933 18.2636 10.9053 18.5203 10.854C18.7843 10.7953 19.0483 10.7513 19.3123 10.722C19.5396 10.678 19.756 10.6487 19.9613 10.634C20.1666 10.612 20.3463 10.579 20.5003 10.535C20.6616 10.491 20.7863 10.425 20.8743 10.337C20.9696 10.2417 21.0173 10.1023 21.0173 9.919C21.0173 9.75767 20.977 9.62567 20.8963 9.523C20.823 9.42033 20.7276 9.34333 20.6103 9.292C20.5003 9.23333 20.3756 9.19667 20.2363 9.182C20.097 9.16 19.965 9.149 19.8403 9.149C19.4883 9.149 19.1986 9.22233 18.9713 9.369C18.744 9.51567 18.6156 9.743 18.5863 10.051H17.3323C17.3543 9.68433 17.4423 9.38 17.5963 9.138C17.7503 8.896 17.9446 8.70167 18.1793 8.555C18.4213 8.40833 18.6926 8.30567 18.9933 8.247C19.294 8.18833 19.602 8.159 19.9173 8.159C20.196 8.159 20.471 8.18833 20.7423 8.247C21.0136 8.30567 21.2556 8.401 21.4683 8.533C21.6883 8.665 21.8643 8.83733 21.9963 9.05C22.1283 9.25533 22.1943 9.50833 22.1943 9.809V12.735ZM20.9403 11.151C20.7496 11.2757 20.515 11.3527 20.2363 11.382C19.9576 11.404 19.679 11.4407 19.4003 11.492C19.2683 11.514 19.14 11.547 19.0153 11.591C18.8906 11.6277 18.7806 11.6827 18.6853 11.756C18.59 11.822 18.513 11.9137 18.4543 12.031C18.403 12.141 18.3773 12.2767 18.3773 12.438C18.3773 12.5773 18.4176 12.6947 18.4983 12.79C18.579 12.8853 18.6743 12.9623 18.7843 13.021C18.9016 13.0723 19.0263 13.109 19.1583 13.131C19.2976 13.153 19.4223 13.164 19.5323 13.164C19.6716 13.164 19.822 13.1457 19.9833 13.109C20.1446 13.0723 20.295 13.01 20.4343 12.922C20.581 12.834 20.702 12.724 20.7973 12.592C20.8926 12.4527 20.9403 12.284 20.9403 12.086V11.151ZM29.1006 14H27.9126V13.23H27.8906C27.7219 13.56 27.4763 13.7983 27.1536 13.945C26.8309 14.0843 26.4899 14.154 26.1306 14.154C25.6833 14.154 25.2909 14.077 24.9536 13.923C24.6236 13.7617 24.3486 13.5453 24.1286 13.274C23.9086 13.0027 23.7436 12.6837 23.6336 12.317C23.5236 11.943 23.4686 11.5433 23.4686 11.118C23.4686 10.6047 23.5383 10.161 23.6776 9.787C23.8169 9.413 24.0003 9.105 24.2276 8.863C24.4623 8.621 24.7263 8.445 25.0196 8.335C25.3203 8.21767 25.6246 8.159 25.9326 8.159C26.1086 8.159 26.2883 8.17733 26.4716 8.214C26.6549 8.24333 26.8309 8.29467 26.9996 8.368C27.1683 8.44133 27.3223 8.53667 27.4616 8.654C27.6083 8.764 27.7293 8.896 27.8246 9.05H27.8466V6.146H29.1006V14ZM24.7226 11.217C24.7226 11.459 24.7519 11.6973 24.8106 11.932C24.8766 12.1667 24.9719 12.3757 25.0966 12.559C25.2286 12.7423 25.3936 12.889 25.5916 12.999C25.7896 13.109 26.0243 13.164 26.2956 13.164C26.5743 13.164 26.8126 13.1053 27.0106 12.988C27.2159 12.8707 27.3809 12.7167 27.5056 12.526C27.6376 12.3353 27.7329 12.1227 27.7916 11.888C27.8576 11.646 27.8906 11.4003 27.8906 11.151C27.8906 10.5203 27.7476 10.029 27.4616 9.677C27.1829 9.325 26.8016 9.149 26.3176 9.149C26.0243 9.149 25.7749 9.21133 25.5696 9.336C25.3716 9.45333 25.2066 9.611 25.0746 9.809C24.9499 9.99967 24.8583 10.2197 24.7996 10.469C24.7483 10.711 24.7226 10.9603 24.7226 11.217ZM34.5732 10.656C34.5585 10.458 34.5145 10.2673 34.4412 10.084C34.3752 9.90067 34.2799 9.743 34.1552 9.611C34.0379 9.47167 33.8912 9.36167 33.7152 9.281C33.5465 9.193 33.3559 9.149 33.1432 9.149C32.9232 9.149 32.7215 9.18933 32.5382 9.27C32.3622 9.34333 32.2082 9.44967 32.0762 9.589C31.9515 9.721 31.8489 9.87867 31.7682 10.062C31.6949 10.2453 31.6545 10.4433 31.6472 10.656H34.5732ZM31.6472 11.481C31.6472 11.701 31.6765 11.9137 31.7352 12.119C31.8012 12.3243 31.8965 12.504 32.0212 12.658C32.1459 12.812 32.3035 12.9367 32.4942 13.032C32.6849 13.12 32.9122 13.164 33.1762 13.164C33.5429 13.164 33.8362 13.087 34.0562 12.933C34.2835 12.7717 34.4522 12.5333 34.5622 12.218H35.7502C35.6842 12.526 35.5705 12.801 35.4092 13.043C35.2479 13.285 35.0535 13.4903 34.8262 13.659C34.5989 13.8203 34.3422 13.9413 34.0562 14.022C33.7775 14.11 33.4842 14.154 33.1762 14.154C32.7289 14.154 32.3329 14.0807 31.9882 13.934C31.6435 13.7873 31.3502 13.582 31.1082 13.318C30.8735 13.054 30.6939 12.7387 30.5692 12.372C30.4519 12.0053 30.3932 11.602 30.3932 11.162C30.3932 10.7587 30.4555 10.3773 30.5802 10.018C30.7122 9.65133 30.8955 9.33233 31.1302 9.061C31.3722 8.78233 31.6619 8.56233 31.9992 8.401C32.3365 8.23967 32.7179 8.159 33.1432 8.159C33.5905 8.159 33.9902 8.25433 34.3422 8.445C34.7015 8.62833 34.9985 8.874 35.2332 9.182C35.4679 9.49 35.6365 9.84567 35.7392 10.249C35.8492 10.645 35.8785 11.0557 35.8272 11.481H31.6472ZM40.275 6.146H41.529V7.334H40.275V6.146ZM40.275 8.313H41.529V14H40.275V8.313ZM43.0954 8.313H44.2834V9.149L44.3054 9.171C44.496 8.85567 44.7454 8.61 45.0534 8.434C45.3614 8.25067 45.7024 8.159 46.0764 8.159C46.6997 8.159 47.191 8.32033 47.5504 8.643C47.9097 8.96567 48.0894 9.44967 48.0894 10.095V14H46.8354V10.425C46.8207 9.97767 46.7254 9.655 46.5494 9.457C46.3734 9.25167 46.0984 9.149 45.7244 9.149C45.5117 9.149 45.321 9.18933 45.1524 9.27C44.9837 9.34333 44.8407 9.44967 44.7234 9.589C44.606 9.721 44.5144 9.87867 44.4484 10.062C44.3824 10.2453 44.3494 10.4397 44.3494 10.645V14H43.0954V8.313Z" fill="url(#paint1_linear)"/>
</g>
<path d="M56 0H123C125.209 0 127 1.79086 127 4V16C127 18.2091 125.209 20 123 20H56V0Z" fill="url(#paint2_linear)"/>
<g filter="url(#filter1_d)">
<path d="M76.945 6.146H78.375L80.344 12.361H80.366L82.379 6.146H83.776L81.092 14H79.563L76.945 6.146ZM84.725 6.146H85.979V7.334H84.725V6.146ZM84.725 8.313H85.979V14H84.725V8.313ZM91.4504 10.656C91.4357 10.458 91.3917 10.2673 91.3184 10.084C91.2524 9.90067 91.157 9.743 91.0324 9.611C90.915 9.47167 90.7684 9.36167 90.5924 9.281C90.4237 9.193 90.233 9.149 90.0204 9.149C89.8004 9.149 89.5987 9.18933 89.4154 9.27C89.2394 9.34333 89.0854 9.44967 88.9534 9.589C88.8287 9.721 88.726 9.87867 88.6454 10.062C88.572 10.2453 88.5317 10.4433 88.5244 10.656H91.4504ZM88.5244 11.481C88.5244 11.701 88.5537 11.9137 88.6124 12.119C88.6784 12.3243 88.7737 12.504 88.8984 12.658C89.023 12.812 89.1807 12.9367 89.3714 13.032C89.562 13.12 89.7894 13.164 90.0534 13.164C90.42 13.164 90.7134 13.087 90.9334 12.933C91.1607 12.7717 91.3294 12.5333 91.4394 12.218H92.6274C92.5614 12.526 92.4477 12.801 92.2864 13.043C92.125 13.285 91.9307 13.4903 91.7034 13.659C91.476 13.8203 91.2194 13.9413 90.9334 14.022C90.6547 14.11 90.3614 14.154 90.0534 14.154C89.606 14.154 89.21 14.0807 88.8654 13.934C88.5207 13.7873 88.2274 13.582 87.9854 13.318C87.7507 13.054 87.571 12.7387 87.4464 12.372C87.329 12.0053 87.2704 11.602 87.2704 11.162C87.2704 10.7587 87.3327 10.3773 87.4574 10.018C87.5894 9.65133 87.7727 9.33233 88.0074 9.061C88.2494 8.78233 88.539 8.56233 88.8764 8.401C89.2137 8.23967 89.595 8.159 90.0204 8.159C90.4677 8.159 90.8674 8.25433 91.2194 8.445C91.5787 8.62833 91.8757 8.874 92.1104 9.182C92.345 9.49 92.5137 9.84567 92.6164 10.249C92.7264 10.645 92.7557 11.0557 92.7044 11.481H88.5244ZM93.2857 8.313H94.2317V6.608H95.4857V8.313H96.6187V9.248H95.4857V12.284C95.4857 12.416 95.4893 12.5297 95.4967 12.625C95.5113 12.7203 95.537 12.801 95.5737 12.867C95.6177 12.933 95.68 12.9843 95.7607 13.021C95.8413 13.0503 95.9513 13.065 96.0907 13.065C96.1787 13.065 96.2667 13.065 96.3547 13.065C96.4427 13.0577 96.5307 13.043 96.6187 13.021V13.989C96.4793 14.0037 96.3437 14.0183 96.2117 14.033C96.0797 14.0477 95.944 14.055 95.8047 14.055C95.4747 14.055 95.207 14.0257 95.0017 13.967C94.8037 13.901 94.646 13.8093 94.5287 13.692C94.4187 13.5673 94.3417 13.4133 94.2977 13.23C94.261 13.0467 94.239 12.8377 94.2317 12.603V9.248H93.2857V8.313ZM97.7207 8.313H98.9087V9.149L98.9307 9.171C99.1214 8.85567 99.3707 8.61 99.6787 8.434C99.9867 8.25067 100.328 8.159 100.702 8.159C101.325 8.159 101.816 8.32033 102.176 8.643C102.535 8.96567 102.715 9.44967 102.715 10.095V14H101.461V10.425C101.446 9.97767 101.351 9.655 101.175 9.457C100.999 9.25167 100.724 9.149 100.35 9.149C100.137 9.149 99.9464 9.18933 99.7777 9.27C99.6091 9.34333 99.4661 9.44967 99.3487 9.589C99.2314 9.721 99.1397 9.87867 99.0737 10.062C99.0077 10.2453 98.9747 10.4397 98.9747 10.645V14H97.7207V8.313ZM109 12.735C109 12.889 109.018 12.999 109.055 13.065C109.099 13.131 109.18 13.164 109.297 13.164C109.334 13.164 109.378 13.164 109.429 13.164C109.48 13.164 109.539 13.1567 109.605 13.142V14.011C109.561 14.0257 109.502 14.0403 109.429 14.055C109.363 14.077 109.293 14.0953 109.22 14.11C109.147 14.1247 109.073 14.1357 109 14.143C108.927 14.1503 108.864 14.154 108.813 14.154C108.556 14.154 108.344 14.1027 108.175 14C108.006 13.8973 107.896 13.7177 107.845 13.461C107.596 13.703 107.288 13.879 106.921 13.989C106.562 14.099 106.213 14.154 105.876 14.154C105.619 14.154 105.374 14.1173 105.139 14.044C104.904 13.978 104.695 13.879 104.512 13.747C104.336 13.6077 104.193 13.4353 104.083 13.23C103.98 13.0173 103.929 12.7717 103.929 12.493C103.929 12.141 103.991 11.855 104.116 11.635C104.248 11.415 104.417 11.2427 104.622 11.118C104.835 10.9933 105.069 10.9053 105.326 10.854C105.59 10.7953 105.854 10.7513 106.118 10.722C106.345 10.678 106.562 10.6487 106.767 10.634C106.972 10.612 107.152 10.579 107.306 10.535C107.467 10.491 107.592 10.425 107.68 10.337C107.775 10.2417 107.823 10.1023 107.823 9.919C107.823 9.75767 107.783 9.62567 107.702 9.523C107.629 9.42033 107.533 9.34333 107.416 9.292C107.306 9.23333 107.181 9.19667 107.042 9.182C106.903 9.16 106.771 9.149 106.646 9.149C106.294 9.149 106.004 9.22233 105.777 9.369C105.55 9.51567 105.421 9.743 105.392 10.051H104.138C104.16 9.68433 104.248 9.38 104.402 9.138C104.556 8.896 104.75 8.70167 104.985 8.555C105.227 8.40833 105.498 8.30567 105.799 8.247C106.1 8.18833 106.408 8.159 106.723 8.159C107.002 8.159 107.277 8.18833 107.548 8.247C107.819 8.30567 108.061 8.401 108.274 8.533C108.494 8.665 108.67 8.83733 108.802 9.05C108.934 9.25533 109 9.50833 109 9.809V12.735ZM107.746 11.151C107.555 11.2757 107.321 11.3527 107.042 11.382C106.763 11.404 106.485 11.4407 106.206 11.492C106.074 11.514 105.946 11.547 105.821 11.591C105.696 11.6277 105.586 11.6827 105.491 11.756C105.396 11.822 105.319 11.9137 105.26 12.031C105.209 12.141 105.183 12.2767 105.183 12.438C105.183 12.5773 105.223 12.6947 105.304 12.79C105.385 12.8853 105.48 12.9623 105.59 13.021C105.707 13.0723 105.832 13.109 105.964 13.131C106.103 13.153 106.228 13.164 106.338 13.164C106.477 13.164 106.628 13.1457 106.789 13.109C106.95 13.0723 107.101 13.01 107.24 12.922C107.387 12.834 107.508 12.724 107.603 12.592C107.698 12.4527 107.746 12.284 107.746 12.086V11.151ZM110.549 8.313H111.737V9.105H111.77C111.866 8.96567 111.968 8.83733 112.078 8.72C112.188 8.60267 112.309 8.50367 112.441 8.423C112.581 8.34233 112.738 8.28 112.914 8.236C113.09 8.18467 113.292 8.159 113.519 8.159C113.864 8.159 114.183 8.236 114.476 8.39C114.777 8.544 114.99 8.78233 115.114 9.105C115.327 8.81167 115.573 8.58067 115.851 8.412C116.13 8.24333 116.478 8.159 116.896 8.159C117.498 8.159 117.963 8.30567 118.293 8.599C118.631 8.89233 118.799 9.38367 118.799 10.073V14H117.545V10.678C117.545 10.4507 117.538 10.2453 117.523 10.062C117.509 9.87133 117.465 9.71 117.391 9.578C117.325 9.43867 117.223 9.33233 117.083 9.259C116.944 9.18567 116.753 9.149 116.511 9.149C116.086 9.149 115.778 9.281 115.587 9.545C115.397 9.809 115.301 10.183 115.301 10.667V14H114.047V10.348C114.047 9.952 113.974 9.655 113.827 9.457C113.688 9.25167 113.428 9.149 113.046 9.149C112.885 9.149 112.727 9.182 112.573 9.248C112.427 9.314 112.295 9.40933 112.177 9.534C112.067 9.65867 111.976 9.81267 111.902 9.996C111.836 10.1793 111.803 10.3883 111.803 10.623V14H110.549V8.313Z" fill="url(#paint3_linear)"/>
</g>
<rect x="56" y="1" width="0.5" height="17" fill="white" fill-opacity="0.1"/>
<g filter="url(#filter2_d)">
<path d="M73.1066 8.81703L70.5953 8.45204L69.4726 6.17607C69.4419 6.11375 69.3915 6.06331 69.3292 6.03264C69.1729 5.95549 68.983 6.01979 68.9048 6.17607L67.7822 8.45204L65.2708 8.81703C65.2016 8.82692 65.1383 8.85956 65.0898 8.90902C65.0312 8.96924 64.9989 9.05026 65 9.13428C65.0011 9.2183 65.0356 9.29844 65.0957 9.35709L66.9128 11.1286L66.4835 13.6301C66.4734 13.6883 66.4798 13.7481 66.5021 13.8029C66.5243 13.8576 66.5614 13.905 66.6092 13.9397C66.6569 13.9744 66.7135 13.995 66.7724 13.9992C66.8313 14.0034 66.8902 13.991 66.9424 13.9634L69.1887 12.7824L71.435 13.9634C71.4964 13.9961 71.5676 14.007 71.6358 13.9951C71.8079 13.9654 71.9237 13.8022 71.894 13.6301L71.4647 11.1286L73.2817 9.35709C73.3312 9.30862 73.3638 9.24532 73.3737 9.17608C73.4004 9.00298 73.2797 8.84275 73.1066 8.81703Z" fill="#FFD500"/>
</g>
<defs>
<filter id="filter0_d" x="7.16" y="6.146" width="41.4294" height="9.008" filterUnits="userSpaceOnUse" color-interpolation-filters="sRGB">
<feFlood flood-opacity="0" result="BackgroundImageFix"/>
<feColorMatrix in="SourceAlpha" type="matrix" values="0 0 0 0 0 0 0 0 0 0 0 0 0 0 0 0 0 0 127 0"/>
<feOffset dy="0.5"/>
<feGaussianBlur stdDeviation="0.25"/>
<feColorMatrix type="matrix" values="0 0 0 0 0 0 0 0 0 0 0 0 0 0 0 0 0 0 0.25 0"/>
<feBlend mode="normal" in2="BackgroundImageFix" result="effect1_dropShadow"/>
<feBlend mode="normal" in="SourceGraphic" in2="effect1_dropShadow" result="shape"/>
</filter>
<filter id="filter1_d" x="76.445" y="6.146" width="42.8545" height="9.008" filterUnits="userSpaceOnUse" color-interpolation-filters="sRGB">
<feFlood flood-opacity="0" result="BackgroundImageFix"/>
<feColorMatrix in="SourceAlpha" type="matrix" values="0 0 0 0 0 0 0 0 0 0 0 0 0 0 0 0 0 0 127 0"/>
<feOffset dy="0.5"/>
<feGaussianBlur stdDeviation="0.25"/>
<feColorMatrix type="matrix" values="0 0 0 0 0 0 0 0 0 0 0 0 0 0 0 0 0 0 0.25 0"/>
<feBlend mode="normal" in2="BackgroundImageFix" result="effect1_dropShadow"/>
<feBlend mode="normal" in="SourceGraphic" in2="effect1_dropShadow" result="shape"/>
</filter>
<filter id="filter2_d" x="64.5" y="6" width="9.37741" height="9" filterUnits="userSpaceOnUse" color-interpolation-filters="sRGB">
<feFlood flood-opacity="0" result="BackgroundImageFix"/>
<feColorMatrix in="SourceAlpha" type="matrix" values="0 0 0 0 0 0 0 0 0 0 0 0 0 0 0 0 0 0 127 0"/>
<feOffset dy="0.5"/>
<feGaussianBlur stdDeviation="0.25"/>
<feColorMatrix type="matrix" values="0 0 0 0 0 0 0 0 0 0 0 0 0 0 0 0 0 0 0.25 0"/>
<feBlend mode="normal" in2="BackgroundImageFix" result="effect1_dropShadow"/>
<feBlend mode="normal" in="SourceGraphic" in2="effect1_dropShadow" result="shape"/>
</filter>
<linearGradient id="paint0_linear" x1="0" y1="0" x2="0" y2="20" gradientUnits="userSpaceOnUse">
<stop stop-color="#5E5E5E"/>
<stop offset="1" stop-color="#454545"/>
</linearGradient>
<linearGradient id="paint1_linear" x1="28" y1="3" x2="28" y2="16" gradientUnits="userSpaceOnUse">
<stop stop-color="white"/>
<stop offset="1" stop-color="white" stop-opacity="0.9"/>
</linearGradient>
<linearGradient id="paint2_linear" x1="91.5" y1="0" x2="91.5" y2="20" gradientUnits="userSpaceOnUse">
<stop stop-color="#FF3333"/>
<stop offset="1" stop-color="#BF2626"/>
</linearGradient>
<linearGradient id="paint3_linear" x1="98.5" y1="3" x2="98.5" y2="16" gradientUnits="userSpaceOnUse">
<stop stop-color="white"/>
<stop offset="1" stop-color="white" stop-opacity="0.9"/>
</linearGradient>
</defs>
</svg>
