<svg width="154" height="20" viewBox="0 0 154 20" fill="none" xmlns="http://www.w3.org/2000/svg">
<path d="M0 3C0 1.34315 1.34315 0 3 0H63V20H3C1.34315 20 0 18.6569 0 17V3Z" fill="url(#paint0_linear)"/>
<g filter="url(#filter0_d)">
<path d="M7.693 6.146H8.947V9.05H8.969C9.057 8.91067 9.16333 8.786 9.288 8.676C9.41267 8.566 9.54833 8.47433 9.695 8.401C9.849 8.32033 10.0067 8.26167 10.168 8.225C10.3367 8.181 10.5017 8.159 10.663 8.159C11.1103 8.159 11.499 8.23967 11.829 8.401C12.1663 8.555 12.445 8.77133 12.665 9.05C12.885 9.32133 13.05 9.64033 13.16 10.007C13.27 10.3737 13.325 10.766 13.325 11.184C13.325 11.5653 13.2737 11.9357 13.171 12.295C13.0757 12.6543 12.9253 12.9733 12.72 13.252C12.522 13.5233 12.269 13.7433 11.961 13.912C11.653 14.0733 11.29 14.154 10.872 14.154C10.6813 14.154 10.487 14.1393 10.289 14.11C10.0983 14.088 9.915 14.0403 9.739 13.967C9.563 13.8937 9.40167 13.7983 9.255 13.681C9.11567 13.5637 8.99833 13.4097 8.903 13.219H8.881V14H7.693V6.146ZM12.071 11.162C12.071 10.9053 12.038 10.656 11.972 10.414C11.906 10.172 11.807 9.95933 11.675 9.776C11.543 9.58533 11.378 9.435 11.18 9.325C10.982 9.20767 10.7547 9.149 10.498 9.149C9.97 9.149 9.57033 9.33233 9.299 9.699C9.035 10.0657 8.903 10.5533 8.903 11.162C8.903 11.448 8.936 11.7157 9.002 11.965C9.07533 12.207 9.18167 12.416 9.321 12.592C9.46033 12.768 9.62533 12.9073 9.816 13.01C10.014 13.1127 10.2413 13.164 10.498 13.164C10.784 13.164 11.026 13.1053 11.224 12.988C11.422 12.8707 11.5833 12.7203 11.708 12.537C11.84 12.3463 11.9317 12.1337 11.983 11.899C12.0417 11.657 12.071 11.4113 12.071 11.162ZM19.5786 14H18.3466V13.208H18.3246C18.1706 13.494 17.9396 13.725 17.6316 13.901C17.3309 14.0697 17.0229 14.154 16.7076 14.154C15.9596 14.154 15.4169 13.9707 15.0796 13.604C14.7496 13.23 14.5846 12.669 14.5846 11.921V8.313H15.8386V11.8C15.8386 12.2987 15.9339 12.6507 16.1246 12.856C16.3153 13.0613 16.5829 13.164 16.9276 13.164C17.1916 13.164 17.4116 13.1237 17.5876 13.043C17.7636 12.9623 17.9066 12.856 18.0166 12.724C18.1266 12.5847 18.2036 12.4197 18.2476 12.229C18.2989 12.0383 18.3246 11.833 18.3246 11.613V8.313H19.5786V14ZM21.134 6.146H22.388V7.334H21.134V6.146ZM21.134 8.313H22.388V14H21.134V8.313ZM23.9873 6.146H25.2413V14H23.9873V6.146ZM26.2357 8.313H27.1817V6.608H28.4357V8.313H29.5687V9.248H28.4357V12.284C28.4357 12.416 28.4393 12.5297 28.4467 12.625C28.4613 12.7203 28.487 12.801 28.5237 12.867C28.5677 12.933 28.63 12.9843 28.7107 13.021C28.7913 13.0503 28.9013 13.065 29.0407 13.065C29.1287 13.065 29.2167 13.065 29.3047 13.065C29.3927 13.0577 29.4807 13.043 29.5687 13.021V13.989C29.4293 14.0037 29.2937 14.0183 29.1617 14.033C29.0297 14.0477 28.894 14.055 28.7547 14.055C28.4247 14.055 28.157 14.0257 27.9517 13.967C27.7537 13.901 27.596 13.8093 27.4787 13.692C27.3687 13.5673 27.2917 13.4133 27.2477 13.23C27.211 13.0467 27.189 12.8377 27.1817 12.603V9.248H26.2357V8.313ZM33.4153 8.313H34.7463L35.8573 12.559H35.8793L36.9463 8.313H38.2113L39.2343 12.559H39.2563L40.4113 8.313H41.6873L39.9053 14H38.6183L37.5623 9.776H37.5403L36.4953 14H35.1753L33.4153 8.313ZM42.7268 6.146H43.9808V7.334H42.7268V6.146ZM42.7268 8.313H43.9808V14H42.7268V8.313ZM44.9751 8.313H45.9211V6.608H47.1751V8.313H48.3081V9.248H47.1751V12.284C47.1751 12.416 47.1788 12.5297 47.1861 12.625C47.2008 12.7203 47.2264 12.801 47.2631 12.867C47.3071 12.933 47.3694 12.9843 47.4501 13.021C47.5308 13.0503 47.6408 13.065 47.7801 13.065C47.8681 13.065 47.9561 13.065 48.0441 13.065C48.1321 13.0577 48.2201 13.043 48.3081 13.021V13.989C48.1688 14.0037 48.0331 14.0183 47.9011 14.033C47.7691 14.0477 47.6334 14.055 47.4941 14.055C47.1641 14.055 46.8964 14.0257 46.6911 13.967C46.4931 13.901 46.3354 13.8093 46.2181 13.692C46.1081 13.5673 46.0311 13.4133 45.9871 13.23C45.9504 13.0467 45.9284 12.8377 45.9211 12.603V9.248H44.9751V8.313ZM49.4102 6.146H50.6642V9.061H50.6862C50.8402 8.80433 51.0675 8.59167 51.3682 8.423C51.6762 8.247 52.0172 8.159 52.3912 8.159C53.0145 8.159 53.5059 8.32033 53.8652 8.643C54.2245 8.96567 54.4042 9.44967 54.4042 10.095V14H53.1502V10.425C53.1355 9.97767 53.0402 9.655 52.8642 9.457C52.6882 9.25167 52.4132 9.149 52.0392 9.149C51.8265 9.149 51.6359 9.18933 51.4672 9.27C51.2985 9.34333 51.1555 9.44967 51.0382 9.589C50.9209 9.721 50.8292 9.87867 50.7632 10.062C50.6972 10.2453 50.6642 10.4397 50.6642 10.645V14H49.4102V6.146Z" fill="url(#paint1_linear)"/>
</g>
<path d="M63 0H151C152.657 0 154 1.34315 154 3V17C154 18.6569 152.657 20 151 20H63V0Z" fill="url(#paint2_linear)"/>
<g filter="url(#filter1_d)">
<path fill-rule="evenodd" clip-rule="evenodd" d="M87.3908 6H89.0961L86.1524 15H84.4472L87.3908 6ZM96.537 10.9999L93.4876 14.5875L94.602 15.8911L98.7554 10.9998L94.5975 6.10821L93.4883 7.41318L96.537 10.9999ZM76.0124 7.41249L72.963 11L76.0117 14.5868L74.9025 15.8917L70.7446 11.0001L74.898 6.10886L76.0124 7.41249ZM84.5176 10.6571L83.2598 6.90002H81.9502L80.3233 11.494L78.8295 6.90002H76.8753L79.4741 14.1849H80.9986L82.5538 9.85695L83.7078 13.133L84.5176 10.6571ZM87.769 14.185H89.6528C90.1849 14.185 90.6453 14.1031 91.0341 13.9394C91.4297 13.7757 91.7333 13.5438 91.9447 13.2437C92.1562 12.9435 92.2619 12.5923 92.2619 12.1898C92.2619 11.7465 92.1459 11.3713 91.914 11.0643C91.6821 10.7506 91.3513 10.5323 90.9215 10.4095C91.2831 10.2799 91.5627 10.0719 91.7605 9.7854C91.9583 9.49891 92.0573 9.16809 92.0573 8.79294C92.0573 8.21315 91.8322 7.75272 91.382 7.41167C91.0521 7.16178 90.638 7.00344 90.1397 6.93665L89.6639 8.39162C89.8019 8.42051 89.9142 8.46561 90.0007 8.52691C90.1712 8.64287 90.2565 8.82363 90.2565 9.06919C90.2565 9.30792 90.1746 9.48186 90.0109 9.591C89.8472 9.70013 89.588 9.7547 89.2333 9.7547H89.218L88.7429 11.2076H89.4277C89.8029 11.2076 90.0689 11.2656 90.2258 11.3815C90.3827 11.4975 90.4611 11.6953 90.4611 11.975C90.4611 12.2478 90.3793 12.4422 90.2156 12.5582C90.0587 12.6741 89.7961 12.7321 89.4277 12.7321H88.2442L87.769 14.185Z" fill="url(#paint3_linear)"/>
</g>
<g filter="url(#filter2_d)">
<path d="M102.066 6.146H103.463L104.882 12.152H104.904L106.488 6.146H107.896L109.436 12.152H109.458L110.921 6.146H112.318L110.151 14H108.754L107.181 7.994H107.159L105.553 14H104.134L102.066 6.146ZM117.059 10.656C117.045 10.458 117.001 10.2673 116.927 10.084C116.861 9.90067 116.766 9.743 116.641 9.611C116.524 9.47167 116.377 9.36167 116.201 9.281C116.033 9.193 115.842 9.149 115.629 9.149C115.409 9.149 115.208 9.18933 115.024 9.27C114.848 9.34333 114.694 9.44967 114.562 9.589C114.438 9.721 114.335 9.87867 114.254 10.062C114.181 10.2453 114.141 10.4433 114.133 10.656H117.059ZM114.133 11.481C114.133 11.701 114.163 11.9137 114.221 12.119C114.287 12.3243 114.383 12.504 114.507 12.658C114.632 12.812 114.79 12.9367 114.98 13.032C115.171 13.12 115.398 13.164 115.662 13.164C116.029 13.164 116.322 13.087 116.542 12.933C116.77 12.7717 116.938 12.5333 117.048 12.218H118.236C118.17 12.526 118.057 12.801 117.895 13.043C117.734 13.285 117.54 13.4903 117.312 13.659C117.085 13.8203 116.828 13.9413 116.542 14.022C116.264 14.11 115.97 14.154 115.662 14.154C115.215 14.154 114.819 14.0807 114.474 13.934C114.13 13.7873 113.836 13.582 113.594 13.318C113.36 13.054 113.18 12.7387 113.055 12.372C112.938 12.0053 112.879 11.602 112.879 11.162C112.879 10.7587 112.942 10.3773 113.066 10.018C113.198 9.65133 113.382 9.33233 113.616 9.061C113.858 8.78233 114.148 8.56233 114.485 8.401C114.823 8.23967 115.204 8.159 115.629 8.159C116.077 8.159 116.476 8.25433 116.828 8.445C117.188 8.62833 117.485 8.874 117.719 9.182C117.954 9.49 118.123 9.84567 118.225 10.249C118.335 10.645 118.365 11.0557 118.313 11.481H114.133ZM121.118 9.435H123.362C123.692 9.435 123.967 9.34333 124.187 9.16C124.407 8.96933 124.517 8.698 124.517 8.346C124.517 7.95 124.418 7.67133 124.22 7.51C124.022 7.34867 123.736 7.268 123.362 7.268H121.118V9.435ZM119.743 6.146H123.56C124.264 6.146 124.828 6.30733 125.254 6.63C125.679 6.95267 125.892 7.44033 125.892 8.093C125.892 8.489 125.793 8.83 125.595 9.116C125.404 9.39467 125.129 9.611 124.77 9.765V9.787C125.254 9.88967 125.62 10.1207 125.87 10.48C126.119 10.832 126.244 11.2757 126.244 11.811C126.244 12.119 126.189 12.4087 126.079 12.68C125.969 12.944 125.796 13.175 125.562 13.373C125.327 13.5637 125.026 13.7177 124.66 13.835C124.293 13.945 123.857 14 123.351 14H119.743V6.146ZM121.118 12.878H123.549C123.967 12.878 124.289 12.7717 124.517 12.559C124.751 12.339 124.869 12.031 124.869 11.635C124.869 11.2463 124.751 10.9493 124.517 10.744C124.289 10.5313 123.967 10.425 123.549 10.425H121.118V12.878ZM132.606 14H131.374V13.208H131.352C131.198 13.494 130.967 13.725 130.659 13.901C130.358 14.0697 130.05 14.154 129.735 14.154C128.987 14.154 128.444 13.9707 128.107 13.604C127.777 13.23 127.612 12.669 127.612 11.921V8.313H128.866V11.8C128.866 12.2987 128.961 12.6507 129.152 12.856C129.342 13.0613 129.61 13.164 129.955 13.164C130.219 13.164 130.439 13.1237 130.615 13.043C130.791 12.9623 130.934 12.856 131.044 12.724C131.154 12.5847 131.231 12.4197 131.275 12.229C131.326 12.0383 131.352 11.833 131.352 11.613V8.313H132.606V14ZM134.261 6.146H135.515V7.334H134.261V6.146ZM134.261 8.313H135.515V14H134.261V8.313ZM137.214 6.146H138.468V14H137.214V6.146ZM145.492 14H144.304V13.23H144.282C144.113 13.56 143.867 13.7983 143.545 13.945C143.222 14.0843 142.881 14.154 142.522 14.154C142.074 14.154 141.682 14.077 141.345 13.923C141.015 13.7617 140.74 13.5453 140.52 13.274C140.3 13.0027 140.135 12.6837 140.025 12.317C139.915 11.943 139.86 11.5433 139.86 11.118C139.86 10.6047 139.929 10.161 140.069 9.787C140.208 9.413 140.391 9.105 140.619 8.863C140.853 8.621 141.117 8.445 141.411 8.335C141.711 8.21767 142.016 8.159 142.324 8.159C142.5 8.159 142.679 8.17733 142.863 8.214C143.046 8.24333 143.222 8.29467 143.391 8.368C143.559 8.44133 143.713 8.53667 143.853 8.654C143.999 8.764 144.12 8.896 144.216 9.05H144.238V6.146H145.492V14ZM141.114 11.217C141.114 11.459 141.143 11.6973 141.202 11.932C141.268 12.1667 141.363 12.3757 141.488 12.559C141.62 12.7423 141.785 12.889 141.983 12.999C142.181 13.109 142.415 13.164 142.687 13.164C142.965 13.164 143.204 13.1053 143.402 12.988C143.607 12.8707 143.772 12.7167 143.897 12.526C144.029 12.3353 144.124 12.1227 144.183 11.888C144.249 11.646 144.282 11.4003 144.282 11.151C144.282 10.5203 144.139 10.029 143.853 9.677C143.574 9.325 143.193 9.149 142.709 9.149C142.415 9.149 142.166 9.21133 141.961 9.336C141.763 9.45333 141.598 9.611 141.466 9.809C141.341 9.99967 141.249 10.2197 141.191 10.469C141.139 10.711 141.114 10.9603 141.114 11.217Z" fill="url(#paint4_linear)"/>
</g>
<rect x="63" y="1" width="0.5" height="17" fill="white" fill-opacity="0.1"/>
<defs>
<filter id="filter0_d" x="7.19299" y="6.146" width="47.7112" height="9.008" filterUnits="userSpaceOnUse" color-interpolation-filters="sRGB">
<feFlood flood-opacity="0" result="BackgroundImageFix"/>
<feColorMatrix in="SourceAlpha" type="matrix" values="0 0 0 0 0 0 0 0 0 0 0 0 0 0 0 0 0 0 127 0"/>
<feOffset dy="0.5"/>
<feGaussianBlur stdDeviation="0.25"/>
<feColorMatrix type="matrix" values="0 0 0 0 0 0 0 0 0 0 0 0 0 0 0 0 0 0 0.25 0"/>
<feBlend mode="normal" in2="BackgroundImageFix" result="effect1_dropShadow"/>
<feBlend mode="normal" in="SourceGraphic" in2="effect1_dropShadow" result="shape"/>
</filter>
<filter id="filter1_d" x="70.2446" y="6" width="29.0107" height="10.8917" filterUnits="userSpaceOnUse" color-interpolation-filters="sRGB">
<feFlood flood-opacity="0" result="BackgroundImageFix"/>
<feColorMatrix in="SourceAlpha" type="matrix" values="0 0 0 0 0 0 0 0 0 0 0 0 0 0 0 0 0 0 127 0"/>
<feOffset dy="0.5"/>
<feGaussianBlur stdDeviation="0.25"/>
<feColorMatrix type="matrix" values="0 0 0 0 0 0 0 0 0 0 0 0 0 0 0 0 0 0 0.25 0"/>
<feBlend mode="normal" in2="BackgroundImageFix" result="effect1_dropShadow"/>
<feBlend mode="normal" in="SourceGraphic" in2="effect1_dropShadow" result="shape"/>
</filter>
<filter id="filter2_d" x="101.566" y="6.146" width="44.4258" height="9.008" filterUnits="userSpaceOnUse" color-interpolation-filters="sRGB">
<feFlood flood-opacity="0" result="BackgroundImageFix"/>
<feColorMatrix in="SourceAlpha" type="matrix" values="0 0 0 0 0 0 0 0 0 0 0 0 0 0 0 0 0 0 127 0"/>
<feOffset dy="0.5"/>
<feGaussianBlur stdDeviation="0.25"/>
<feColorMatrix type="matrix" values="0 0 0 0 0 0 0 0 0 0 0 0 0 0 0 0 0 0 0.25 0"/>
<feBlend mode="normal" in2="BackgroundImageFix" result="effect1_dropShadow"/>
<feBlend mode="normal" in="SourceGraphic" in2="effect1_dropShadow" result="shape"/>
</filter>
<linearGradient id="paint0_linear" x1="0" y1="0" x2="0" y2="20" gradientUnits="userSpaceOnUse">
<stop stop-color="#5E5E5E"/>
<stop offset="1" stop-color="#454545"/>
</linearGradient>
<linearGradient id="paint1_linear" x1="31.5" y1="3" x2="31.5" y2="16" gradientUnits="userSpaceOnUse">
<stop stop-color="white"/>
<stop offset="1" stop-color="white" stop-opacity="0.9"/>
</linearGradient>
<linearGradient id="paint2_linear" x1="108.5" y1="0" x2="108.5" y2="20" gradientUnits="userSpaceOnUse">
<stop stop-color="#3A9B73"/>
<stop offset="1" stop-color="#34785C"/>
</linearGradient>
<linearGradient id="paint3_linear" x1="84.75" y1="6" x2="84.75" y2="15.8917" gradientUnits="userSpaceOnUse">
<stop stop-color="white"/>
<stop offset="1" stop-color="white" stop-opacity="0.9"/>
</linearGradient>
<linearGradient id="paint4_linear" x1="124.5" y1="3" x2="124.5" y2="16" gradientUnits="userSpaceOnUse">
<stop stop-color="white"/>
<stop offset="1" stop-color="white" stop-opacity="0.9"/>
</linearGradient>
</defs>
</svg>
