<svg width="152" height="20" viewBox="0 0 152 20" fill="none" xmlns="http://www.w3.org/2000/svg">
<mask id="mask0" mask-type="alpha" maskUnits="userSpaceOnUse" x="0" y="0" width="152" height="20">
<path d="M149 0H3C1.34315 0 0 1.34315 0 3V17C0 18.6569 1.34315 20 3 20H149C150.657 20 152 18.6569 152 17V3C152 1.34315 150.657 0 149 0Z" fill="white"/>
</mask>
<g mask="url(#mask0)">
<path d="M-1 0H65V20H-1V0Z" fill="#555555"/>
<path d="M65 0H152V20H65V0Z" fill="#2A926C"/>
<path d="M0 0H152V20H0V0Z" fill="url(#paint0_linear)"/>
<path d="M8.53917 9.18848L8.56602 9.83301C8.99213 9.33171 9.56684 9.08105 10.2901 9.08105C11.103 9.08105 11.6562 9.39258 11.9498 10.0156C12.1432 9.73633 12.3938 9.51074 12.7018 9.33887C13.0133 9.16699 13.3803 9.08105 13.8028 9.08105C15.0776 9.08105 15.7257 9.75602 15.7472 11.106V15H14.7535V11.165C14.7535 10.7497 14.6586 10.4399 14.4689 10.2358C14.2791 10.0282 13.9604 9.92432 13.5128 9.92432C13.144 9.92432 12.8378 10.0353 12.5943 10.2573C12.3509 10.4757 12.2094 10.7712 12.17 11.1436V15H11.171V11.1919C11.171 10.3468 10.7574 9.92432 9.93028 9.92432C9.27859 9.92432 8.83279 10.2018 8.59288 10.7568V15H7.59923V9.18848H8.53917ZM19.6627 15.1074C18.8749 15.1074 18.234 14.8496 17.7399 14.334C17.2457 13.8148 16.9986 13.1219 16.9986 12.2554V12.0728C16.9986 11.4963 17.1079 10.9824 17.3263 10.5312C17.5483 10.0765 17.8562 9.72201 18.2501 9.46777C18.6476 9.20996 19.0773 9.08105 19.5392 9.08105C20.2947 9.08105 20.8819 9.32992 21.3009 9.82764C21.7198 10.3254 21.9293 11.0379 21.9293 11.9653V12.3789H17.9923C18.0066 12.9518 18.1731 13.4155 18.4918 13.77C18.8141 14.1209 19.2223 14.2964 19.7164 14.2964C20.0673 14.2964 20.3645 14.2248 20.608 14.0815C20.8515 13.9383 21.0646 13.7485 21.2472 13.5122L21.8541 13.9849C21.3671 14.7332 20.6367 15.1074 19.6627 15.1074ZM19.5392 9.89746C19.1381 9.89746 18.8015 10.0443 18.5294 10.3379C18.2573 10.6279 18.089 11.0361 18.0245 11.5625H20.9357V11.4873C20.907 10.9824 20.7709 10.5921 20.5275 10.3164C20.284 10.0371 19.9545 9.89746 19.5392 9.89746ZM24.0187 9.18848L24.0455 9.83301C24.4716 9.33171 25.0463 9.08105 25.7696 9.08105C26.5825 9.08105 27.1357 9.39258 27.4293 10.0156C27.6227 9.73633 27.8733 9.51074 28.1813 9.33887C28.4928 9.16699 28.8598 9.08105 29.2823 9.08105C30.5571 9.08105 31.2052 9.75602 31.2267 11.106V15H30.233V11.165C30.233 10.7497 30.1381 10.4399 29.9483 10.2358C29.7586 10.0282 29.4399 9.92432 28.9923 9.92432C28.6235 9.92432 28.3173 10.0353 28.0738 10.2573C27.8303 10.4757 27.6889 10.7712 27.6495 11.1436V15H26.6505V11.1919C26.6505 10.3468 26.2369 9.92432 25.4098 9.92432C24.7581 9.92432 24.3123 10.2018 24.0724 10.7568V15H23.0787V9.18848H24.0187ZM37.6505 12.1587C37.6505 13.0467 37.4464 13.7611 37.0382 14.3018C36.63 14.8389 36.0821 15.1074 35.3946 15.1074C34.6606 15.1074 34.093 14.8478 33.692 14.3286L33.6437 15H32.7306V6.75H33.7242V9.82764C34.1253 9.32992 34.6785 9.08105 35.3839 9.08105C36.0893 9.08105 36.6425 9.34782 37.0436 9.88135C37.4482 10.4149 37.6505 11.1453 37.6505 12.0728V12.1587ZM36.6568 12.0459C36.6568 11.3691 36.5261 10.8464 36.2648 10.4775C36.0034 10.1087 35.6274 9.92432 35.1368 9.92432C34.4816 9.92432 34.0107 10.2287 33.7242 10.8374V13.3511C34.0286 13.9598 34.503 14.2642 35.1476 14.2642C35.6238 14.2642 35.9944 14.0798 36.2594 13.7109C36.5244 13.3421 36.6568 12.7871 36.6568 12.0459ZM41.319 15.1074C40.5312 15.1074 39.8902 14.8496 39.3961 14.334C38.902 13.8148 38.6549 13.1219 38.6549 12.2554V12.0728C38.6549 11.4963 38.7641 10.9824 38.9825 10.5312C39.2045 10.0765 39.5125 9.72201 39.9064 9.46777C40.3038 9.20996 40.7335 9.08105 41.1954 9.08105C41.951 9.08105 42.5382 9.32992 42.9571 9.82764C43.3761 10.3254 43.5856 11.0379 43.5856 11.9653V12.3789H39.6485C39.6629 12.9518 39.8294 13.4155 40.1481 13.77C40.4703 14.1209 40.8785 14.2964 41.3727 14.2964C41.7236 14.2964 42.0208 14.2248 42.2643 14.0815C42.5078 13.9383 42.7208 13.7485 42.9034 13.5122L43.5104 13.9849C43.0234 14.7332 42.2929 15.1074 41.319 15.1074ZM41.1954 9.89746C40.7944 9.89746 40.4578 10.0443 40.1857 10.3379C39.9135 10.6279 39.7452 11.0361 39.6808 11.5625H42.5919V11.4873C42.5633 10.9824 42.4272 10.5921 42.1837 10.3164C41.9402 10.0371 41.6108 9.89746 41.1954 9.89746ZM47.5494 10.0801C47.399 10.055 47.2361 10.0425 47.0607 10.0425C46.409 10.0425 45.9667 10.32 45.734 10.875V15H44.7403V9.18848H45.7071L45.7233 9.85986C46.0491 9.34066 46.511 9.08105 47.109 9.08105C47.3024 9.08105 47.4492 9.10612 47.5494 9.15625V10.0801ZM50.9332 12.0405C50.9332 11.4712 51.0442 10.9591 51.2662 10.5044C51.4918 10.0496 51.8033 9.69873 52.2008 9.45166C52.6018 9.20459 53.0584 9.08105 53.5704 9.08105C54.3618 9.08105 55.0009 9.35498 55.4879 9.90283C55.9785 10.4507 56.2237 11.1794 56.2237 12.0889V12.1587C56.2237 12.7244 56.1145 13.2329 55.8961 13.6841C55.6813 14.1317 55.3715 14.4808 54.9669 14.7314C54.5659 14.9821 54.1039 15.1074 53.5812 15.1074C52.7934 15.1074 52.1542 14.8335 51.6637 14.2856C51.1767 13.7378 50.9332 13.0127 50.9332 12.1104V12.0405ZM51.9322 12.1587C51.9322 12.8032 52.0808 13.3206 52.378 13.7109C52.6788 14.1012 53.0799 14.2964 53.5812 14.2964C54.086 14.2964 54.4871 14.0994 54.7843 13.7056C55.0815 13.3081 55.2301 12.7531 55.2301 12.0405C55.2301 11.4032 55.0779 10.8875 54.7735 10.4937C54.4728 10.0962 54.0717 9.89746 53.5704 9.89746C53.0799 9.89746 52.6842 10.0926 52.3834 10.4829C52.0826 10.8732 51.9322 11.4318 51.9322 12.1587ZM57.9586 15V9.95654H57.0401V9.18848H57.9586V8.59229C57.9586 7.96924 58.1251 7.48763 58.4581 7.14746C58.7911 6.80729 59.262 6.63721 59.8707 6.63721C60.0999 6.63721 60.3273 6.66764 60.5528 6.72852L60.4991 7.53418C60.3308 7.50195 60.1518 7.48584 59.962 7.48584C59.6398 7.48584 59.3909 7.58073 59.2154 7.77051C59.04 7.95671 58.9523 8.22526 58.9523 8.57617V9.18848H60.193V9.95654H58.9523V15H57.9586Z" fill="#010101" fill-opacity="0.3"/>
<path d="M7.8418 8.18848L7.86865 8.83301C8.29476 8.33171 8.86947 8.08105 9.59277 8.08105C10.4056 8.08105 10.9588 8.39258 11.2524 9.01562C11.4458 8.73633 11.6965 8.51074 12.0044 8.33887C12.3159 8.16699 12.6829 8.08105 13.1055 8.08105C14.3802 8.08105 15.0283 8.75602 15.0498 10.106V14H14.0562V10.165C14.0562 9.74967 13.9613 9.43994 13.7715 9.23584C13.5817 9.02816 13.263 8.92432 12.8154 8.92432C12.4466 8.92432 12.1405 9.03532 11.897 9.25732C11.6535 9.47575 11.512 9.77116 11.4727 10.1436V14H10.4736V10.1919C10.4736 9.34684 10.0601 8.92432 9.23291 8.92432C8.58122 8.92432 8.13542 9.20182 7.89551 9.75684V14H6.90186V8.18848H7.8418ZM18.9653 14.1074C18.1776 14.1074 17.5366 13.8496 17.0425 13.334C16.5483 12.8148 16.3013 12.1219 16.3013 11.2554V11.0728C16.3013 10.4963 16.4105 9.98242 16.6289 9.53125C16.8509 9.0765 17.1589 8.72201 17.5527 8.46777C17.9502 8.20996 18.3799 8.08105 18.8418 8.08105C19.5973 8.08105 20.1846 8.32992 20.6035 8.82764C21.0225 9.32536 21.2319 10.0379 21.2319 10.9653V11.3789H17.2949C17.3092 11.9518 17.4757 12.4155 17.7944 12.77C18.1167 13.1209 18.5249 13.2964 19.019 13.2964C19.37 13.2964 19.6672 13.2248 19.9106 13.0815C20.1541 12.9383 20.3672 12.7485 20.5498 12.5122L21.1567 12.9849C20.6698 13.7332 19.9393 14.1074 18.9653 14.1074ZM18.8418 8.89746C18.4408 8.89746 18.1042 9.04427 17.832 9.33789C17.5599 9.62793 17.3916 10.0361 17.3271 10.5625H20.2383V10.4873C20.2096 9.98242 20.0736 9.59212 19.8301 9.31641C19.5866 9.03711 19.2572 8.89746 18.8418 8.89746ZM23.3213 8.18848L23.3481 8.83301C23.7743 8.33171 24.349 8.08105 25.0723 8.08105C25.8851 8.08105 26.4383 8.39258 26.7319 9.01562C26.9253 8.73633 27.1759 8.51074 27.4839 8.33887C27.7954 8.16699 28.1624 8.08105 28.585 8.08105C29.8597 8.08105 30.5078 8.75602 30.5293 10.106V14H29.5356V10.165C29.5356 9.74967 29.4408 9.43994 29.251 9.23584C29.0612 9.02816 28.7425 8.92432 28.2949 8.92432C27.9261 8.92432 27.62 9.03532 27.3765 9.25732C27.133 9.47575 26.9915 9.77116 26.9521 10.1436V14H25.9531V10.1919C25.9531 9.34684 25.5396 8.92432 24.7124 8.92432C24.0607 8.92432 23.6149 9.20182 23.375 9.75684V14H22.3813V8.18848H23.3213ZM36.9531 11.1587C36.9531 12.0467 36.749 12.7611 36.3408 13.3018C35.9326 13.8389 35.3848 14.1074 34.6973 14.1074C33.9632 14.1074 33.3957 13.8478 32.9946 13.3286L32.9463 14H32.0332V5.75H33.0269V8.82764C33.4279 8.32992 33.9811 8.08105 34.6865 8.08105C35.3919 8.08105 35.9451 8.34782 36.3462 8.88135C36.7508 9.41488 36.9531 10.1453 36.9531 11.0728V11.1587ZM35.9595 11.0459C35.9595 10.3691 35.8288 9.84635 35.5674 9.47754C35.306 9.10872 34.93 8.92432 34.4395 8.92432C33.7842 8.92432 33.3133 9.22868 33.0269 9.8374V12.3511C33.3312 12.9598 33.8057 13.2642 34.4502 13.2642C34.9264 13.2642 35.297 13.0798 35.562 12.7109C35.827 12.3421 35.9595 11.7871 35.9595 11.0459ZM40.6216 14.1074C39.8338 14.1074 39.1929 13.8496 38.6987 13.334C38.2046 12.8148 37.9575 12.1219 37.9575 11.2554V11.0728C37.9575 10.4963 38.0667 9.98242 38.2852 9.53125C38.5072 9.0765 38.8151 8.72201 39.209 8.46777C39.6064 8.20996 40.0361 8.08105 40.498 8.08105C41.2536 8.08105 41.8408 8.32992 42.2598 8.82764C42.6787 9.32536 42.8882 10.0379 42.8882 10.9653V11.3789H38.9512C38.9655 11.9518 39.132 12.4155 39.4507 12.77C39.7729 13.1209 40.1812 13.2964 40.6753 13.2964C41.0262 13.2964 41.3234 13.2248 41.5669 13.0815C41.8104 12.9383 42.0234 12.7485 42.2061 12.5122L42.813 12.9849C42.326 13.7332 41.5955 14.1074 40.6216 14.1074ZM40.498 8.89746C40.097 8.89746 39.7604 9.04427 39.4883 9.33789C39.2161 9.62793 39.0479 10.0361 38.9834 10.5625H41.8945V10.4873C41.8659 9.98242 41.7298 9.59212 41.4863 9.31641C41.2428 9.03711 40.9134 8.89746 40.498 8.89746ZM46.8521 9.08008C46.7017 9.05501 46.5387 9.04248 46.3633 9.04248C45.7116 9.04248 45.2694 9.31999 45.0366 9.875V14H44.043V8.18848H45.0098L45.0259 8.85986C45.3517 8.34066 45.8136 8.08105 46.4116 8.08105C46.605 8.08105 46.7518 8.10612 46.8521 8.15625V9.08008ZM50.2358 11.0405C50.2358 10.4712 50.3468 9.95915 50.5688 9.50439C50.7944 9.04964 51.106 8.69873 51.5034 8.45166C51.9045 8.20459 52.361 8.08105 52.873 8.08105C53.6644 8.08105 54.3035 8.35498 54.7905 8.90283C55.2811 9.45068 55.5264 10.1794 55.5264 11.0889V11.1587C55.5264 11.7244 55.4172 12.2329 55.1987 12.6841C54.9839 13.1317 54.6742 13.4808 54.2695 13.7314C53.8685 13.9821 53.4066 14.1074 52.8838 14.1074C52.096 14.1074 51.4569 13.8335 50.9663 13.2856C50.4793 12.7378 50.2358 12.0127 50.2358 11.1104V11.0405ZM51.2349 11.1587C51.2349 11.8032 51.3835 12.3206 51.6807 12.7109C51.9814 13.1012 52.3825 13.2964 52.8838 13.2964C53.3887 13.2964 53.7897 13.0994 54.0869 12.7056C54.3841 12.3081 54.5327 11.7531 54.5327 11.0405C54.5327 10.4032 54.3805 9.88753 54.0762 9.49365C53.7754 9.09619 53.3743 8.89746 52.873 8.89746C52.3825 8.89746 51.9868 9.09261 51.686 9.48291C51.3853 9.87321 51.2349 10.4318 51.2349 11.1587ZM57.2612 14V8.95654H56.3428V8.18848H57.2612V7.59229C57.2612 6.96924 57.4277 6.48763 57.7607 6.14746C58.0938 5.80729 58.5646 5.63721 59.1733 5.63721C59.4025 5.63721 59.6299 5.66764 59.8555 5.72852L59.8018 6.53418C59.6335 6.50195 59.4544 6.48584 59.2646 6.48584C58.9424 6.48584 58.6935 6.58073 58.5181 6.77051C58.3426 6.95671 58.2549 7.22526 58.2549 7.57617V8.18848H59.4956V8.95654H58.2549V14H57.2612Z" fill="white"/>
<path fill-rule="evenodd" clip-rule="evenodd" d="M88.6461 7H90.3514L87.4078 16H85.7025L88.6461 7ZM97.7924 11.9999L94.743 15.5875L95.8573 16.8911L100.011 11.9998L95.8529 7.10821L94.7436 8.41318L97.7924 11.9999ZM77.2677 8.41249L74.2183 12L77.2671 15.5868L76.1579 16.8917L72 12.0001L76.1534 7.10886L77.2677 8.41249ZM85.773 11.6571L84.5152 7.90002H83.2055L81.5787 12.494L80.0849 7.90002H78.1306L80.7295 15.1849H82.254L83.8092 10.857L84.9632 14.133L85.773 11.6571ZM89.0244 15.185H90.9082C91.4402 15.185 91.9007 15.1031 92.2895 14.9394C92.6851 14.7757 92.9886 14.5438 93.2001 14.2437C93.4115 13.9435 93.5172 13.5923 93.5172 13.1898C93.5172 12.7465 93.4013 12.3713 93.1694 12.0643C92.9375 11.7506 92.6066 11.5323 92.1769 11.4095C92.5384 11.2799 92.8181 11.0719 93.0159 10.7854C93.2137 10.4989 93.3126 10.1681 93.3126 9.79294C93.3126 9.21315 93.0875 8.75272 92.6373 8.41167C92.3075 8.16178 91.8934 8.00344 91.3951 7.93665L90.9192 9.39162C91.0572 9.42051 91.1695 9.46561 91.2561 9.52691C91.4266 9.64287 91.5119 9.82363 91.5119 10.0692C91.5119 10.3079 91.43 10.4819 91.2663 10.591C91.1026 10.7001 90.8434 10.7547 90.4887 10.7547H90.4734L89.9982 12.2076H90.6831C91.0583 12.2076 91.3243 12.2656 91.4812 12.3815C91.638 12.4975 91.7165 12.6953 91.7165 12.975C91.7165 13.2478 91.6346 13.4422 91.4709 13.5582C91.314 13.6741 91.0514 13.7321 90.6831 13.7321H89.4996L89.0244 15.185Z" fill="#010101" fill-opacity="0.3"/>
<path fill-rule="evenodd" clip-rule="evenodd" d="M88.6461 6H90.3514L87.4078 15H85.7025L88.6461 6ZM97.7924 10.9999L94.743 14.5875L95.8573 15.8911L100.011 10.9998L95.8529 6.10821L94.7436 7.41318L97.7924 10.9999ZM77.2677 7.41249L74.2183 11L77.2671 14.5868L76.1579 15.8917L72 11.0001L76.1534 6.10886L77.2677 7.41249ZM85.773 10.6571L84.5152 6.90002H83.2055L81.5787 11.494L80.0849 6.90002H78.1306L80.7295 14.1849H82.254L83.8092 9.85695L84.9632 13.133L85.773 10.6571ZM89.0244 14.185H90.9082C91.4402 14.185 91.9007 14.1031 92.2895 13.9394C92.6851 13.7757 92.9886 13.5438 93.2001 13.2437C93.4115 12.9435 93.5172 12.5923 93.5172 12.1898C93.5172 11.7465 93.4013 11.3713 93.1694 11.0643C92.9375 10.7506 92.6066 10.5323 92.1769 10.4095C92.5384 10.2799 92.8181 10.0719 93.0159 9.7854C93.2137 9.49891 93.3126 9.16809 93.3126 8.79294C93.3126 8.21315 93.0875 7.75272 92.6373 7.41167C92.3075 7.16178 91.8934 7.00344 91.3951 6.93665L90.9192 8.39162C91.0572 8.42051 91.1695 8.46561 91.2561 8.52691C91.4266 8.64287 91.5119 8.82363 91.5119 9.06919C91.5119 9.30792 91.43 9.48186 91.2663 9.591C91.1026 9.70013 90.8434 9.7547 90.4887 9.7547H90.4734L89.9982 11.2076H90.6831C91.0583 11.2076 91.3243 11.2656 91.4812 11.3815C91.638 11.4975 91.7165 11.6953 91.7165 11.975C91.7165 12.2478 91.6346 12.4422 91.4709 12.5582C91.314 12.6741 91.0514 12.7321 90.6831 12.7321H89.4996L89.0244 14.185Z" fill="url(#paint1_linear)"/>
<path d="M111.276 13.0664L112.479 7.17969H113.828L112.023 15H110.723L109.235 9.29053L107.715 15H106.41L104.605 7.17969H105.954L107.167 13.0557L108.661 7.17969H109.799L111.276 13.0664ZM117.083 15.1074C116.255 15.1074 115.584 14.8478 115.068 14.3286C114.556 13.8058 114.3 13.1112 114.3 12.2446V12.0835C114.3 11.5034 114.411 10.986 114.633 10.5312C114.859 10.0729 115.174 9.71663 115.579 9.4624C115.983 9.20817 116.434 9.08105 116.932 9.08105C117.723 9.08105 118.334 9.3335 118.764 9.83838C119.197 10.3433 119.414 11.0576 119.414 11.9814V12.5078H115.616C115.656 12.9876 115.815 13.3672 116.094 13.6465C116.377 13.9258 116.732 14.0654 117.158 14.0654C117.756 14.0654 118.243 13.8237 118.619 13.3403L119.322 14.0117C119.09 14.359 118.778 14.6294 118.388 14.8228C118.001 15.0125 117.566 15.1074 117.083 15.1074ZM116.927 10.1284C116.569 10.1284 116.279 10.2537 116.057 10.5044C115.838 10.755 115.699 11.1042 115.638 11.5518H118.125V11.4551C118.096 11.0182 117.979 10.6888 117.775 10.4668C117.571 10.2412 117.288 10.1284 116.927 10.1284ZM120.558 15V7.17969H123.238C124.122 7.17969 124.795 7.35693 125.257 7.71143C125.719 8.06592 125.95 8.59408 125.95 9.2959C125.95 9.65397 125.854 9.97624 125.66 10.2627C125.467 10.5492 125.184 10.7712 124.812 10.9287C125.234 11.0433 125.56 11.2599 125.789 11.5786C126.022 11.8937 126.138 12.2733 126.138 12.7173C126.138 13.4513 125.902 14.0153 125.429 14.4092C124.96 14.8031 124.287 15 123.41 15H120.558ZM121.917 11.4712V13.915H123.426C123.852 13.915 124.185 13.8094 124.425 13.5981C124.665 13.3869 124.785 13.0933 124.785 12.7173C124.785 11.9045 124.369 11.4891 123.539 11.4712H121.917ZM121.917 10.4722H123.249C123.671 10.4722 124 10.3773 124.237 10.1875C124.477 9.99414 124.597 9.72201 124.597 9.37109C124.597 8.98438 124.486 8.70508 124.264 8.5332C124.045 8.36133 123.703 8.27539 123.238 8.27539H121.917V10.4722ZM130.892 14.4307C130.508 14.8818 129.964 15.1074 129.259 15.1074C128.629 15.1074 128.151 14.923 127.825 14.5542C127.502 14.1854 127.341 13.6519 127.341 12.9536V9.18848H128.646V12.9375C128.646 13.6751 128.953 14.0439 129.565 14.0439C130.199 14.0439 130.627 13.8166 130.849 13.3618V9.18848H132.154V15H130.924L130.892 14.4307ZM134.872 15H133.566V9.18848H134.872V15ZM133.486 7.6792C133.486 7.47868 133.549 7.31217 133.674 7.17969C133.803 7.0472 133.985 6.98096 134.222 6.98096C134.458 6.98096 134.641 7.0472 134.77 7.17969C134.898 7.31217 134.963 7.47868 134.963 7.6792C134.963 7.87614 134.898 8.04085 134.77 8.17334C134.641 8.30225 134.458 8.3667 134.222 8.3667C133.985 8.3667 133.803 8.30225 133.674 8.17334C133.549 8.04085 133.486 7.87614 133.486 7.6792ZM137.686 15H136.381V6.75H137.686V15ZM138.868 12.0513C138.868 11.1561 139.075 10.4382 139.491 9.89746C139.906 9.35319 140.463 9.08105 141.161 9.08105C141.777 9.08105 142.275 9.2959 142.654 9.72559V6.75H143.959V15H142.778L142.713 14.3984C142.323 14.8711 141.802 15.1074 141.15 15.1074C140.47 15.1074 139.919 14.8335 139.496 14.2856C139.077 13.7378 138.868 12.993 138.868 12.0513ZM140.173 12.1641C140.173 12.7549 140.286 13.2168 140.511 13.5498C140.74 13.8792 141.064 14.0439 141.483 14.0439C142.017 14.0439 142.407 13.8058 142.654 13.3296V10.8481C142.414 10.3826 142.028 10.1499 141.494 10.1499C141.072 10.1499 140.746 10.3182 140.517 10.6548C140.287 10.9878 140.173 11.4909 140.173 12.1641Z" fill="#010101" fill-opacity="0.3"/>
<path d="M110.276 12.0664L111.479 6.17969H112.828L111.023 14H109.723L108.235 8.29053L106.715 14H105.41L103.605 6.17969H104.954L106.167 12.0557L107.661 6.17969H108.799L110.276 12.0664ZM116.083 14.1074C115.255 14.1074 114.584 13.8478 114.068 13.3286C113.556 12.8058 113.3 12.1112 113.3 11.2446V11.0835C113.3 10.5034 113.411 9.986 113.633 9.53125C113.859 9.07292 114.174 8.71663 114.579 8.4624C114.983 8.20817 115.434 8.08105 115.932 8.08105C116.723 8.08105 117.334 8.3335 117.764 8.83838C118.197 9.34326 118.414 10.0576 118.414 10.9814V11.5078H114.616C114.656 11.9876 114.815 12.3672 115.094 12.6465C115.377 12.9258 115.732 13.0654 116.158 13.0654C116.756 13.0654 117.243 12.8237 117.619 12.3403L118.322 13.0117C118.09 13.359 117.778 13.6294 117.388 13.8228C117.001 14.0125 116.566 14.1074 116.083 14.1074ZM115.927 9.12842C115.569 9.12842 115.279 9.25374 115.057 9.50439C114.838 9.75505 114.699 10.1042 114.638 10.5518H117.125V10.4551C117.096 10.0182 116.979 9.6888 116.775 9.4668C116.571 9.24121 116.288 9.12842 115.927 9.12842ZM119.558 14V6.17969H122.238C123.122 6.17969 123.795 6.35693 124.257 6.71143C124.719 7.06592 124.95 7.59408 124.95 8.2959C124.95 8.65397 124.854 8.97624 124.66 9.2627C124.467 9.54915 124.184 9.77116 123.812 9.92871C124.234 10.0433 124.56 10.2599 124.789 10.5786C125.022 10.8937 125.138 11.2733 125.138 11.7173C125.138 12.4513 124.902 13.0153 124.429 13.4092C123.96 13.8031 123.287 14 122.41 14H119.558ZM120.917 10.4712V12.915H122.426C122.852 12.915 123.185 12.8094 123.425 12.5981C123.665 12.3869 123.785 12.0933 123.785 11.7173C123.785 10.9045 123.369 10.4891 122.539 10.4712H120.917ZM120.917 9.47217H122.249C122.671 9.47217 123 9.37728 123.237 9.1875C123.477 8.99414 123.597 8.72201 123.597 8.37109C123.597 7.98438 123.486 7.70508 123.264 7.5332C123.045 7.36133 122.703 7.27539 122.238 7.27539H120.917V9.47217ZM129.892 13.4307C129.508 13.8818 128.964 14.1074 128.259 14.1074C127.629 14.1074 127.151 13.923 126.825 13.5542C126.502 13.1854 126.341 12.6519 126.341 11.9536V8.18848H127.646V11.9375C127.646 12.6751 127.953 13.0439 128.565 13.0439C129.199 13.0439 129.627 12.8166 129.849 12.3618V8.18848H131.154V14H129.924L129.892 13.4307ZM133.872 14H132.566V8.18848H133.872V14ZM132.486 6.6792C132.486 6.47868 132.549 6.31217 132.674 6.17969C132.803 6.0472 132.985 5.98096 133.222 5.98096C133.458 5.98096 133.641 6.0472 133.77 6.17969C133.898 6.31217 133.963 6.47868 133.963 6.6792C133.963 6.87614 133.898 7.04085 133.77 7.17334C133.641 7.30225 133.458 7.3667 133.222 7.3667C132.985 7.3667 132.803 7.30225 132.674 7.17334C132.549 7.04085 132.486 6.87614 132.486 6.6792ZM136.686 14H135.381V5.75H136.686V14ZM137.868 11.0513C137.868 10.1561 138.075 9.43815 138.491 8.89746C138.906 8.35319 139.463 8.08105 140.161 8.08105C140.777 8.08105 141.275 8.2959 141.654 8.72559V5.75H142.959V14H141.778L141.713 13.3984C141.323 13.8711 140.802 14.1074 140.15 14.1074C139.47 14.1074 138.919 13.8335 138.496 13.2856C138.077 12.7378 137.868 11.993 137.868 11.0513ZM139.173 11.1641C139.173 11.7549 139.286 12.2168 139.511 12.5498C139.74 12.8792 140.064 13.0439 140.483 13.0439C141.017 13.0439 141.407 12.8058 141.654 12.3296V9.84814C141.414 9.38265 141.028 9.1499 140.494 9.1499C140.072 9.1499 139.746 9.3182 139.517 9.65479C139.287 9.98779 139.173 10.4909 139.173 11.1641Z" fill="white"/>
</g>
<defs>
<linearGradient id="paint0_linear" x1="55" y1="0" x2="55" y2="20" gradientUnits="userSpaceOnUse">
<stop stop-color="#BBBBBB" stop-opacity="0.1"/>
<stop offset="1" stop-opacity="0.1"/>
</linearGradient>
<linearGradient id="paint1_linear" x1="86.0054" y1="6" x2="86.0054" y2="15.8917" gradientUnits="userSpaceOnUse">
<stop stop-color="white"/>
<stop offset="1" stop-color="white" stop-opacity="0.9"/>
</linearGradient>
</defs>
</svg>
