<svg
  xmlns="http://www.w3.org/2000/svg"
  xmlns:xlink="http://www.w3.org/1999/xlink"
  height="28"
  role="img"
  aria-label="MEMBER OF: WEBUILD"
>
  <g shape-rendering="crispEdges">
    <rect width="80" height="28" fill="#555"/>
    <rect x="80" width="100" height="28" fill="#2A926C"/>
  </g>
  <path
    xmlns="http://www.w3.org/2000/svg"
    fill-rule="evenodd"
    clip-rule="evenodd"
    d="M88.6461 6H90.3514L87.4078 15H85.7025L88.6461 6ZM97.7924 10.9999L94.743 14.5875L95.8573 15.8911L100.011 10.9998L95.8529 6.10821L94.7436 7.41318L97.7924 10.9999ZM77.2677 7.41249L74.2183 11L77.2671 14.5868L76.1579 15.8917L72 11.0001L76.1534 6.10886L77.2677 7.41249ZM85.773 10.6571L84.5152 6.90002H83.2055L81.5787 11.494L80.0849 6.90002H78.1306L80.7295 14.1849H82.254L83.8092 9.85695L84.9632 13.133L85.773 10.6571ZM89.0244 14.185H90.9082C91.4402 14.185 91.9007 14.1031 92.2895 13.9394C92.6851 13.7757 92.9886 13.5438 93.2001 13.2437C93.4115 12.9435 93.5172 12.5923 93.5172 12.1898C93.5172 11.7465 93.4013 11.3713 93.1694 11.0643C92.9375 10.7506 92.6066 10.5323 92.1769 10.4095C92.5384 10.2799 92.8181 10.0719 93.0159 9.7854C93.2137 9.49891 93.3126 9.16809 93.3126 8.79294C93.3126 8.21315 93.0875 7.75272 92.6373 7.41167C92.3075 7.16178 91.8934 7.00344 91.3951 6.93665L90.9192 8.39162C91.0572 8.42051 91.1695 8.46561 91.2561 8.52691C91.4266 8.64287 91.5119 8.82363 91.5119 9.06919C91.5119 9.30792 91.43 9.48186 91.2663 9.591C91.1026 9.70013 90.8434 9.7547 90.4887 9.7547H90.4734L89.9982 11.2076H90.6831C91.0583 11.2076 91.3243 11.2656 91.4812 11.3815C91.638 11.4975 91.7165 11.6953 91.7165 11.975C91.7165 12.2478 91.6346 12.4422 91.4709 12.5582C91.314 12.6741 91.0514 12.7321 90.6831 12.7321H89.4996L89.0244 14.185Z"
    fill="#fff"
    transform="translate(15, 2)"/>
  <g
    fill="#fff"
    text-anchor="middle"
    font-family="Verdana,Geneva,DejaVu Sans,sans-serif"
    text-rendering="geometricPrecision" font-size="100"
  >
    <text fill="#fff" x="400" y="175" transform="scale(.1)">MEMBER OF</text>
    <text fill="#fff" x="1450" y="175" font-weight="bold" transform="scale(.1)">WEBUILD</text>
  </g>
</svg>
